<svg width="24" height="24" viewBox="0 0 24 24" fill="none" xmlns="http://www.w3.org/2000/svg">
<path d="M19.365 12.56L14.385 17.56C14.225 17.72 14.025 17.8 13.825 17.8C13.625 17.8 13.425 17.72 13.265 17.56C12.945 17.24 12.945 16.74 13.265 16.42L16.885 12.78H5.20503C4.76503 12.78 4.40503 12.42 4.40503 11.98C4.40503 11.54 4.76503 11.18 5.20503 11.18H16.885L13.265 7.54004C12.945 7.22004 12.945 6.72003 13.265 6.40003C13.585 6.08003 14.085 6.08003 14.405 6.40003L19.385 11.4C19.685 11.74 19.685 12.26 19.365 12.56Z" fill="#232630"/>
</svg>
