<svg width="56" height="56" viewBox="0 0 56 56" fill="none" xmlns="http://www.w3.org/2000/svg">
<path d="M53.5938 20.635V10.7219C53.5938 8.36981 51.6802 6.4563 49.3281 6.4563H41.5791C39.2178 6.4563 37.2969 8.37736 37.2969 10.7385V11.7063C37.2969 12.3104 37.7865 12.8 38.3906 12.8H46.9219C47.1028 12.8 47.25 12.9473 47.25 13.1282V20.4577H3.50459C1.57216 20.4577 0 22.0299 0 23.9623C0 25.5112 1.0103 26.8277 2.40625 27.2896V36.7752C2.40625 41.9673 6.28294 46.2706 11.2937 46.9438L10.5609 47.6766C10.1338 48.1037 10.1338 48.7962 10.5609 49.2234C10.7745 49.437 11.0544 49.5437 11.3343 49.5437C11.6142 49.5437 11.8942 49.4368 12.1077 49.2234L14.2951 47.036H41.7048L43.8922 49.2234C44.1058 49.437 44.3857 49.5437 44.6656 49.5437C44.9455 49.5437 45.2255 49.4368 45.439 49.2234C45.8661 48.7962 45.8662 48.1037 45.439 47.6766L44.7062 46.9438C49.7171 46.2706 53.5938 41.9673 53.5938 36.7752V27.2896C54.9897 26.8277 56 25.5112 56 23.9623C56 22.4135 54.9897 21.097 53.5938 20.635ZM46.9219 10.6125H39.4881C39.5535 9.51596 40.4663 8.6438 41.5791 8.6438H49.3281C50.474 8.6438 51.4062 9.576 51.4062 10.7219V20.4563H49.4375V13.1282C49.4375 11.7411 48.309 10.6125 46.9219 10.6125ZM8.09375 22.6452H26.9062V36.9484L26.752 36.8685C25.3405 36.1365 23.655 36.1365 22.241 36.8696L22.2333 36.8736C21.4557 37.2766 20.5278 37.2754 19.7513 36.8699C19.0462 36.5016 18.2723 36.3175 17.4987 36.3175C16.7309 36.3175 15.9634 36.4989 15.2643 36.8615C15.2632 36.862 15.2528 36.8674 15.2516 36.868C14.4718 37.2724 13.541 37.273 12.7607 36.87C12.7591 36.8692 12.7577 36.8685 12.7562 36.8677C11.3446 36.1356 9.65913 36.1356 8.24731 36.8676L8.09375 36.9471V22.6452ZM2.1875 23.9622C2.1875 23.2361 2.77834 22.6452 3.50459 22.6452H5.90625V25.2793H3.50459C2.77834 25.2793 2.1875 24.6885 2.1875 23.9622ZM51.406 36.7752C51.4062 41.2267 47.7846 44.8483 43.333 44.8483H12.6669C8.21537 44.8483 4.59375 41.2267 4.59375 36.7752V27.4669H5.90625V38.6465C5.90625 39.0468 6.11877 39.4248 6.46078 39.6328C6.8028 39.8408 7.23603 39.8557 7.59205 39.6714L9.25433 38.8094C10.0342 38.4051 10.965 38.4044 11.7451 38.8074C11.7467 38.8081 11.7482 38.809 11.7497 38.8098C13.1614 39.5417 14.8469 39.5417 16.2552 38.8115C16.2563 38.811 16.2667 38.8056 16.2679 38.8049C17.042 38.4036 17.9655 38.4051 18.7385 38.8087C20.1467 39.5442 21.8295 39.5467 23.2424 38.8142L23.2501 38.8103C24.0312 38.4053 24.9639 38.4054 25.7449 38.8103L27.4074 39.6724C27.5733 39.7586 27.7561 39.8012 27.9386 39.8012C28.1474 39.8012 28.356 39.7453 28.5386 39.6344C28.8809 39.4265 29.0935 39.0484 29.0935 38.6478V27.4669H51.406V36.7752ZM52.4954 25.2794H29.0938V22.6453H52.4954C53.2217 22.6453 53.8125 23.2362 53.8125 23.9624C53.8125 24.6886 53.2217 25.2794 52.4954 25.2794Z" fill="black"/>
<path d="M33.9731 40.3838H33.9126C33.3085 40.3838 32.8188 40.8734 32.8188 41.4775C32.8188 42.0816 33.3085 42.5713 33.9126 42.5713H33.9731C34.5772 42.5713 35.0668 42.0816 35.0668 41.4775C35.0668 40.8734 34.5772 40.3838 33.9731 40.3838Z" fill="black"/>
<path d="M47.8063 32.9864C47.2022 32.9864 46.7125 33.4761 46.7125 34.0801C46.7125 37.556 43.8848 40.3837 40.4089 40.3837H37.3516C36.7475 40.3837 36.2578 40.8734 36.2578 41.4775C36.2578 42.0816 36.7475 42.5713 37.3516 42.5713H40.4089C45.0909 42.5713 48.9 38.7622 48.9 34.0801C48.9 33.4761 48.4104 32.9864 47.8063 32.9864Z" fill="black"/>
<path d="M37.631 16.8078C37.0599 16.6111 36.4375 16.9152 36.2411 17.4865L36.0633 18.0037C35.867 18.5749 36.171 19.1972 36.7422 19.3936C36.86 19.4342 36.9799 19.4533 37.0978 19.4533C37.5518 19.4533 37.9762 19.1683 38.1321 18.7148L38.3098 18.1977C38.5062 17.6264 38.2024 17.0042 37.631 16.8078Z" fill="black"/>
<path d="M38.8757 13.1876C38.3043 12.9911 37.682 13.2951 37.4857 13.8664L37.308 14.3836C37.1117 14.9549 37.4155 15.5771 37.9868 15.7735C38.1046 15.814 38.2244 15.8332 38.3423 15.8332C38.7965 15.8332 39.2207 15.5482 39.3767 15.0947L39.5544 14.5775C39.7508 14.0062 39.4469 13.3839 38.8757 13.1876Z" fill="black"/>
<path d="M40.9609 16.9797C40.3569 16.9797 39.8672 17.4694 39.8672 18.0735V18.6203C39.8672 19.2244 40.3569 19.7141 40.9609 19.7141C41.565 19.7141 42.0547 19.2244 42.0547 18.6203V18.0735C42.0547 17.4694 41.565 16.9797 40.9609 16.9797Z" fill="black"/>
<path d="M40.9609 13.1516C40.3569 13.1516 39.8672 13.6413 39.8672 14.2453V14.7922C39.8672 15.3963 40.3569 15.886 40.9609 15.886C41.565 15.886 42.0547 15.3963 42.0547 14.7922V14.2453C42.0547 13.6413 41.565 13.1516 40.9609 13.1516Z" fill="black"/>
<path d="M45.8767 18.0037L45.6989 17.4866C45.5025 16.9153 44.8801 16.6111 44.309 16.8078C43.7377 17.0042 43.4339 17.6264 43.6303 18.1977L43.808 18.7148C43.9639 19.1683 44.3882 19.4533 44.8423 19.4533C44.9602 19.4533 45.0802 19.4341 45.1979 19.3936C45.7691 19.1973 46.073 18.5749 45.8767 18.0037Z" fill="black"/>
<path d="M44.6316 14.3836L44.4539 13.8663C44.2574 13.2951 43.6354 12.9913 43.0639 13.1875C42.4926 13.3839 42.1888 14.0062 42.3851 14.5775L42.5629 15.0947C42.7188 15.5482 43.143 15.8332 43.5972 15.8332C43.7151 15.8332 43.8351 15.814 43.9528 15.7735C44.5241 15.5772 44.8279 14.9548 44.6316 14.3836Z" fill="black"/>
</svg>
