<svg width="24" height="24" viewBox="0 0 24 24" fill="none" xmlns="http://www.w3.org/2000/svg">
<path d="M18.4052 7.50002H5.60518C4.88518 7.50002 4.30518 6.92002 4.30518 6.20002C4.30518 5.48002 4.88518 4.90002 5.60518 4.90002H18.4052C19.1252 4.90002 19.7052 5.48002 19.7052 6.20002C19.7052 6.92002 19.1252 7.50002 18.4052 7.50002ZM19.7052 12C19.7052 11.28 19.1252 10.7 18.4052 10.7H5.60518C4.88518 10.7 4.30518 11.28 4.30518 12C4.30518 12.72 4.88518 13.3 5.60518 13.3H18.4052C19.1252 13.3 19.7052 12.72 19.7052 12ZM19.7052 17.8C19.7052 17.08 19.1252 16.5 18.4052 16.5H5.60518C4.88518 16.5 4.30518 17.08 4.30518 17.8C4.30518 18.52 4.88518 19.1 5.60518 19.1H18.4052C19.1252 19.1 19.7052 18.52 19.7052 17.8Z" fill="#232630"/>
</svg>
