<svg width="24" height="24" viewBox="0 0 24 24" fill="none" xmlns="http://www.w3.org/2000/svg">
<path d="M21.1652 8.06002L19.0252 14.82C18.8652 15.3 18.4452 15.62 17.9452 15.62H9.68517C9.20517 15.62 8.74517 15.32 8.58517 14.88L5.44518 6.42003H3.60518C3.16518 6.42003 2.80518 6.06003 2.80518 5.62003C2.80518 5.18003 3.16518 4.82003 3.60518 4.82003H5.98517C6.32517 4.82003 6.62518 5.04002 6.74518 5.36002L10.0052 14H17.6052L19.3052 8.60001H9.88517C9.44517 8.60001 9.08517 8.24001 9.08517 7.80001C9.08517 7.36001 9.44517 7.00001 9.88517 7.00001H20.4052C20.6652 7.00001 20.9052 7.14 21.0452 7.34C21.2052 7.54 21.2452 7.82002 21.1652 8.06002ZM10.0852 16.66C9.74517 16.66 9.40517 16.8 9.16517 17.04C8.92517 17.28 8.78517 17.62 8.78517 17.96C8.78517 18.3 8.92517 18.64 9.16517 18.88C9.40517 19.12 9.74517 19.26 10.0852 19.26C10.4252 19.26 10.7652 19.12 11.0052 18.88C11.2452 18.64 11.3852 18.3 11.3852 17.96C11.3852 17.62 11.2452 17.28 11.0052 17.04C10.7652 16.8 10.4252 16.66 10.0852 16.66ZM17.2652 16.66C16.9252 16.66 16.5852 16.8 16.3452 17.04C16.1052 17.28 15.9652 17.62 15.9652 17.96C15.9652 18.3 16.1052 18.64 16.3452 18.88C16.5852 19.12 16.9252 19.26 17.2652 19.26C17.6052 19.26 17.9452 19.12 18.1852 18.88C18.4252 18.64 18.5652 18.3 18.5652 17.96C18.5652 17.62 18.4252 17.28 18.1852 17.04C17.9452 16.8 17.6052 16.66 17.2652 16.66Z"/>
</svg>
