<svg width="48" height="48" viewBox="0 0 48 48" fill="none" xmlns="http://www.w3.org/2000/svg">
<path d="M40.2901 14.4C38.6501 10.76 35.2101 8.40002 31.49 8.40002C27.7701 8.40002 25.37 10.04 23.97 11.8C22.57 10.04 20.17 8.40002 16.45 8.40002C12.73 8.40002 9.29005 10.76 7.65005 14.4C5.97005 18.2 6.69005 22.4 9.61005 25.68C16.61 33.56 22.81 39.12 22.8901 39.16C23.2101 39.44 23.57 39.56 23.97 39.56C24.37 39.56 24.73 39.44 25.05 39.16C25.13 39.12 31.29 33.52 38.33 25.68C41.29 22.4 42.0101 18.2 40.2901 14.4ZM35.97 23.56C30.77 29.36 26.05 33.92 24.01 35.8C21.97 33.88 17.25 29.36 12.05 23.52C9.97005 21.16 9.45005 18.32 10.61 15.64C11.69 13.2 14.05 11.52 16.49 11.52C21.25 11.52 22.33 15.08 22.45 15.52C22.61 16.24 23.25 16.72 23.97 16.72C24.69 16.72 25.33 16.2 25.53 15.52C25.65 15.12 26.7301 11.52 31.49 11.52C33.8901 11.52 36.25 13.16 37.37 15.64C38.57 18.36 38.05 21.2 35.97 23.56ZM35.57 18.92C35.61 19.68 35.05 20.36 34.25 20.4C34.21 20.4 34.17 20.4 34.17 20.4C33.45 20.4 32.81 19.84 32.77 19.08C32.61 16.8 31.13 16.44 30.85 16.4C30.09 16.28 29.57 15.6 29.65 14.84C29.77 14.08 30.49 13.56 31.25 13.64C32.65 13.84 35.33 15.2 35.57 18.92ZM33.65 21.24C33.97 21.56 34.13 21.96 34.13 22.36C34.13 22.8 33.97 23.2 33.65 23.48C33.37 23.8 32.93 23.96 32.53 23.96C32.13 23.96 31.69 23.8 31.41 23.48C31.09 23.2 30.93 22.76 30.93 22.36C30.93 21.96 31.09 21.52 31.41 21.24C31.69 20.96 32.13 20.76 32.53 20.76C32.93 20.8 33.33 20.96 33.65 21.24Z" fill="#232630"/>
</svg>
