<svg width="24" height="24" viewBox="0 0 24 24" fill="none" xmlns="http://www.w3.org/2000/svg">
<path d="M5.95833 22H18.0417C20.2242 22 22 20.2242 22 18.0417V5.95833C22 3.77583 20.2242 2 18.0417 2H5.95833C3.77583 2 2 3.77583 2 5.95833V18.0417C2 20.2242 3.77583 22 5.95833 22ZM3.25 5.95833C3.25 4.465 4.465 3.25 5.95833 3.25H18.0417C19.535 3.25 20.75 4.465 20.75 5.95833V18.0417C20.75 19.535 19.535 20.75 18.0417 20.75H5.95833C4.465 20.75 3.25 19.535 3.25 18.0417V5.95833Z" fill="#232630"/>
<path d="M12 17C14.7569 17 17 14.7569 17 12C17 9.24307 14.7569 7 12 7C9.24307 7 7 9.24307 7 12C7 14.7569 9.24307 17 12 17ZM12 8.22349C14.0824 8.22349 15.7765 9.91762 15.7765 12C15.7765 14.0824 14.0824 15.7765 12 15.7765C9.91762 15.7765 8.22349 14.0824 8.22349 12C8.22349 9.91762 9.91762 8.22349 12 8.22349Z" fill="#232630"/>
<path d="M17.4996 8C18.3552 8 19 7.35503 19 6.5C19 5.60837 18.3214 5 17.5004 5C16.6448 5 16 5.64497 16 6.5C16 7.38989 16.6752 8 17.4996 8ZM17.6532 6.35619C17.9274 6.59936 17.3017 6.89483 17.3017 6.50087C17.3017 6.26554 17.6202 6.32655 17.6532 6.35619Z" fill="#232630"/>
</svg>
