<svg width="56" height="56" viewBox="0 0 56 56" fill="none" xmlns="http://www.w3.org/2000/svg">
<path fill-rule="evenodd" clip-rule="evenodd" d="M14.6323 18.6288C15.2061 18.8185 15.8247 18.5074 16.014 17.9337C17.7311 12.7405 22.562 9.25159 28.0354 9.25159C35.0153 9.25159 40.6943 14.9301 40.6943 21.9105C40.6943 27.3053 38.2778 30.5284 36.3364 33.1184C34.9239 35.0021 33.7041 36.6295 33.7041 38.603C33.7041 38.7328 33.7024 38.8615 33.6994 38.9892H29.1292V36.4766C29.1292 35.8724 28.6395 35.3828 28.0354 35.3828C27.4313 35.3828 26.9417 35.8724 26.9417 36.4766V38.9892H22.371C22.368 38.8615 22.3663 38.7328 22.3663 38.603C22.3663 36.6291 21.1465 35.0021 19.734 33.118C18.304 31.2103 16.6835 29.048 15.8798 25.9757C15.7269 25.3912 15.1287 25.0413 14.5447 25.1943C13.9606 25.3468 13.6107 25.9449 13.7637 26.529C14.6759 30.0166 16.51 32.4639 17.984 34.4301C19.2102 36.066 20.1788 37.358 20.1788 38.603C20.1788 39.1268 20.201 39.6378 20.2442 40.1252V49.3768C20.2442 49.4063 20.2463 49.4349 20.2484 49.4636C20.2493 49.4704 20.2489 49.4777 20.2497 49.4845C20.2536 49.5251 20.26 49.5644 20.2681 49.6037V49.6046C20.6479 51.3862 21.6203 53.0063 23.0072 54.1663C24.4205 55.3489 26.2064 56 28.0354 56C29.8645 56 31.6499 55.3489 33.0637 54.1663C34.4501 53.0063 35.4229 51.3862 35.8023 49.6046C35.8023 49.6041 35.8027 49.6037 35.8027 49.6033C35.8109 49.5644 35.8168 49.5251 35.8211 49.4845C35.8215 49.4777 35.8215 49.4704 35.822 49.4636C35.8241 49.4345 35.8262 49.4059 35.8262 49.3764V40.1252C35.8694 39.6378 35.892 39.1268 35.892 38.603C35.892 37.358 36.8606 36.066 38.0868 34.4301C40.1102 31.7307 42.8818 28.0342 42.8818 21.9105C42.8818 13.724 36.2214 7.06409 28.0354 7.06409C21.6165 7.06409 15.9512 11.1562 13.9371 17.2471C13.7474 17.8204 14.0589 18.4391 14.6323 18.6288ZM28.0354 53.8125C25.8116 53.8125 23.8061 52.4675 22.8559 50.4702H33.2149C32.2643 52.4675 30.2588 53.8125 28.0354 53.8125ZM33.6392 48.2827H22.4317V45.8234H33.6392V48.2827ZM33.6392 43.6359H22.4317V41.1767H33.6392V43.6359Z" fill="black"/>
<path fill-rule="evenodd" clip-rule="evenodd" d="M28.0354 5.10175C28.6395 5.10175 29.1292 4.61212 29.1292 4.008V1.09375C29.1292 0.489624 28.6395 0 28.0354 0C27.4313 0 26.9417 0.489624 26.9417 1.09375V4.008C26.9417 4.61212 27.4313 5.10175 28.0354 5.10175Z" fill="black"/>
<path fill-rule="evenodd" clip-rule="evenodd" d="M7.21875 23.0042H10.133C10.7371 23.0042 11.2267 22.5146 11.2267 21.9105C11.2267 21.3063 10.7371 20.8167 10.133 20.8167H7.21875C6.61462 20.8167 6.125 21.3063 6.125 21.9105C6.125 22.5146 6.61462 23.0042 7.21875 23.0042Z" fill="black"/>
<path fill-rule="evenodd" clip-rule="evenodd" d="M33.0433 24.1202C33.0433 23.5161 32.5537 23.0264 31.9496 23.0264H24.1216C23.5175 23.0264 23.0278 23.5161 23.0278 24.1202C23.0278 24.7243 23.5175 25.2139 24.1216 25.2139H26.9418V27.7266C26.9418 28.3307 27.4315 28.8203 28.0356 28.8203C28.6397 28.8203 29.1293 28.3307 29.1293 27.7266V25.2139H31.9496C32.5537 25.2139 33.0433 24.7243 33.0433 24.1202Z" fill="black"/>
<path fill-rule="evenodd" clip-rule="evenodd" d="M14.6033 10.0249C14.8169 10.2385 15.0968 10.3453 15.3766 10.3453C15.6565 10.3453 15.9363 10.2385 16.1499 10.0249C16.5772 9.59766 16.5772 8.90509 16.1499 8.47827L14.0893 6.41766C13.6621 5.99042 12.9695 5.99042 12.5423 6.41766C12.1155 6.84448 12.1155 7.53705 12.5423 7.96429L14.6033 10.0249Z" fill="black"/>
<path fill-rule="evenodd" clip-rule="evenodd" d="M12.5614 38.4782C12.8412 38.4782 13.1211 38.3714 13.3347 38.1578L15.3953 36.0972C15.8226 35.6699 15.8226 34.9778 15.3953 34.5505C14.9681 34.1233 14.2755 34.1233 13.8487 34.5505L11.7876 36.6111C11.3608 37.0384 11.3608 37.731 11.7876 38.1578C12.0013 38.3714 12.2811 38.4782 12.5614 38.4782Z" fill="black"/>
<path fill-rule="evenodd" clip-rule="evenodd" d="M40.6939 10.3453C40.9737 10.3453 41.2536 10.2385 41.4672 10.0249L43.5278 7.96429C43.9551 7.53704 43.9551 6.84447 43.5278 6.41723C43.101 5.98998 42.4084 5.99041 41.9812 6.41723L39.9206 8.47784C39.4933 8.90508 39.4933 9.59765 39.9202 10.0249C40.1338 10.2385 40.4141 10.3453 40.6939 10.3453Z" fill="black"/>
<path fill-rule="evenodd" clip-rule="evenodd" d="M40.6754 34.5505C40.2482 34.9774 40.2482 35.6699 40.6754 36.0972L42.736 38.1578C42.9496 38.3714 43.2295 38.4782 43.5093 38.4782C43.7892 38.4782 44.069 38.3714 44.2827 38.1578C44.7099 37.731 44.7099 37.0384 44.2827 36.6111L42.222 34.5505C41.7948 34.1233 41.1022 34.1233 40.6754 34.5505Z" fill="black"/>
<path fill-rule="evenodd" clip-rule="evenodd" d="M45.938 23.0042H48.8522C49.4564 23.0042 49.946 22.5146 49.946 21.9105C49.946 21.3063 49.4564 20.8167 48.8522 20.8167H45.938C45.3339 20.8167 44.8442 21.3063 44.8442 21.9105C44.8442 22.5146 45.3339 23.0042 45.938 23.0042Z" fill="black"/>
<path fill-rule="evenodd" clip-rule="evenodd" d="M28.0354 31.0078C27.433 31.0078 26.9417 31.4991 26.9417 32.1016C26.9417 32.704 27.433 33.1953 28.0354 33.1953C28.6378 33.1953 29.1292 32.704 29.1292 32.1016C29.1292 31.4991 28.6378 31.0078 28.0354 31.0078Z" fill="black"/>
<path fill-rule="evenodd" clip-rule="evenodd" d="M15.3765 21.9105C15.3765 21.308 14.8851 20.8167 14.2827 20.8167C13.6799 20.8167 13.189 21.308 13.189 21.9105C13.189 22.5129 13.6799 23.0042 14.2827 23.0042C14.8851 23.0042 15.3765 22.5129 15.3765 21.9105Z" fill="black"/>
</svg>
