<svg width="140" height="28" viewBox="0 0 140 28" fill="none" xmlns="http://www.w3.org/2000/svg">
<path d="M48.5412 15.158H41.6458V19.4277H49.7903V22.75H37.2612V4.83433H49.8153V8.1689H41.6458V11.9464H48.5412V15.158Z" fill="white"/>
<path d="M67.7898 22.75H63.4302L56.9845 11.6019V22.75H52.6V4.83433H56.9845L63.4177 15.9824V4.83433H67.7898V22.75Z" fill="white"/>
<path d="M86.7761 22.75H82.4165L75.9708 11.6019V22.75H71.5863V4.83433H75.9708L82.404 15.9824V4.83433H86.7761V22.75Z" fill="white"/>
<path d="M101.128 19.4031H95.1195L94.0702 22.75H89.3859L96.0564 4.83433H100.179L106.899 22.75H102.19L101.128 19.4031ZM96.1688 16.0685H100.079L98.1175 9.85464L96.1688 16.0685Z" fill="white"/>
<path d="M123.874 20.5351C123.2 21.2734 122.213 21.8681 120.914 22.3193C119.615 22.7705 118.191 22.996 116.642 22.996C114.26 22.996 112.357 22.2783 110.933 20.8427C109.509 19.4072 108.747 17.4097 108.647 14.8503L108.634 13.3C108.634 11.5363 108.951 9.99819 109.584 8.68569C110.217 7.36499 111.12 6.3519 112.295 5.64644C113.477 4.93276 114.843 4.57593 116.392 4.57593C118.657 4.57593 120.414 5.08862 121.663 6.11401C122.921 7.1312 123.654 8.65288 123.862 10.6791H119.64C119.49 9.67827 119.165 8.9646 118.665 8.53804C118.166 8.11147 117.458 7.89819 116.542 7.89819C115.442 7.89819 114.593 8.35757 113.993 9.27632C113.394 10.1951 113.09 11.5076 113.082 13.2138V14.2966C113.082 16.0849 113.39 17.4302 114.006 18.3326C114.63 19.2267 115.609 19.6738 116.941 19.6738C118.082 19.6738 118.932 19.4236 119.49 18.9232V16.1423H116.442V13.1769H123.874V20.5351Z" fill="white"/>
<path d="M138.726 15.158H131.83V19.4277H139.975V22.75H127.446V4.83433H140V8.1689H131.83V11.9464H138.726V15.158Z" fill="white"/>
<rect width="28.4254" height="28" rx="2" fill="white"/>
<path d="M18.6019 19.5842H9.8235L17.3479 21.3421L24.8723 23.1001L18.6019 19.5842Z" fill="#232630"/>
<path fill-rule="evenodd" clip-rule="evenodd" d="M24.8723 23.1001L18.6019 19.5842L16.4073 12.2421L14.2127 4.9001L14.2127 12.1387L8.88295 17.6194L3.55318 23.1001L9.8235 19.5842L17.3479 21.3421L24.8723 23.1001ZM9.8235 19.5842L14.2127 12.1387L18.6019 19.5842H9.8235Z" fill="#232630"/>
<path fill-rule="evenodd" clip-rule="evenodd" d="M14.2127 4.19971L25.4875 23.4501H2.93798L14.2127 4.19971ZM11.8305 9.66794L5.32965 20.7674L8.58005 17.4249L11.8305 9.66794ZM9.93093 16.0358L13.8574 11.9981L13.8574 6.6654L9.93093 16.0358ZM14.568 7.32797L17.4279 16.8957L14.568 12.0445V7.32797ZM12.4119 14.4965L5.49654 21.6077L9.56439 19.3267L12.4119 14.4965ZM9.87766 19.9565L5.29718 22.5249L15.3742 21.2407L9.87766 19.9565ZM17.3291 21.6975L9.06899 22.7501H21.8346L17.3291 21.6975ZM21.87 18.6744L15.3968 7.62209L16.7295 12.0807L21.87 18.6744ZM23.5185 21.9383L17.2866 13.9447L18.9023 19.3499L23.5185 21.9383ZM17.9847 19.2342H10.4407L14.2127 12.8357L17.9847 19.2342ZM12.8612 19.9342L22.5413 22.1958L18.5079 19.9342H12.8612Z" fill="#232630"/>
</svg>
