<svg width="56" height="56" viewBox="0 0 56 56" fill="none" xmlns="http://www.w3.org/2000/svg">
<g clip-path="url(#clip0_137_25)">
<path d="M54.3594 4.375H48.8906C48.2865 4.375 47.7969 4.86467 47.7969 5.46875V6.01562H44.5156C44.1044 6.01562 43.7465 6.24291 43.5597 6.57847C33.6476 6.96697 25.7031 15.1506 25.7031 25.1562V26.25H25.1562C24.5522 26.25 24.0625 26.7397 24.0625 27.3438V31.7188C24.0625 32.3228 24.5522 32.8125 25.1562 32.8125H25.7031V36.8594C25.7031 37.8809 25.305 38.8413 24.582 39.5664C23.858 40.2883 22.8966 40.6875 21.875 40.6875C20.8534 40.6875 19.892 40.2883 19.168 39.5664C18.445 38.8413 18.0469 37.8809 18.0469 36.8594V32.8125H18.5938C19.1978 32.8125 19.6875 32.3228 19.6875 31.7188V27.3438C19.6875 26.7397 19.1978 26.25 18.5938 26.25H18.0469V11.8837C18.3735 11.6945 18.5938 11.3421 18.5938 10.9375V7.65625H19.1406C19.7447 7.65625 20.2344 7.16658 20.2344 6.5625V1.09375C20.2344 0.489672 19.7447 0 19.1406 0H1.64062C1.03655 0 0.546875 0.489672 0.546875 1.09375V6.5625C0.546875 7.16658 1.03655 7.65625 1.64062 7.65625H2.1875V10.9375C2.1875 11.3421 2.40778 11.6946 2.73438 11.8837V26.25H2.1875C1.58342 26.25 1.09375 26.7397 1.09375 27.3438V31.7188C1.09375 32.3228 1.58342 32.8125 2.1875 32.8125H2.73438V36.8594C2.73438 39.4439 3.24078 41.9497 4.23828 44.31C4.71844 45.4442 5.31234 46.538 6.00359 47.5606C6.68828 48.5745 7.47469 49.5272 8.34094 50.3934C9.20719 51.2597 10.1598 52.0461 11.1737 52.7308C12.1964 53.422 13.2902 54.0159 14.4244 54.4961C16.7847 55.4936 19.2899 56 21.8745 56L21.875 55.9945V55.9989V56C23.2969 56 24.6438 55.8512 25.987 55.557C27.2929 55.2705 28.5729 54.845 29.7913 54.2905C30.9868 53.7469 32.1321 53.0753 33.1941 52.2966C34.2474 51.5222 35.2253 50.6384 36.0992 49.6672C36.5028 49.2188 36.4667 48.5264 36.0184 48.1228C35.8171 47.9412 35.5579 47.8417 35.2867 47.8417C34.9771 47.8417 34.6808 47.973 34.474 48.2027C31.2605 51.7672 26.6689 53.8125 21.875 53.8125C17.348 53.8125 13.0911 52.0483 9.8875 48.8469C6.68609 45.6433 4.92188 41.3864 4.92188 36.8594V32.8125H15.8594V36.8594C15.8594 37.672 16.0191 38.4595 16.3319 39.2011C16.6348 39.9175 17.0691 40.5606 17.6214 41.113C18.1737 41.6653 18.8169 42.0984 19.5333 42.4025C20.2748 42.7153 21.0623 42.875 21.875 42.875C22.6877 42.875 23.4752 42.7153 24.2167 42.4025C24.9331 42.0984 25.5763 41.6653 26.1286 41.113C26.6809 40.5606 27.1152 39.9175 27.4181 39.2011C27.7309 38.4595 27.8906 37.672 27.8906 36.8594V32.8125H38.8281V36.8594C38.8281 37.9236 38.7286 38.9889 38.5328 40.0269C38.4781 40.3145 38.5394 40.6055 38.7045 40.8461C38.8686 41.0878 39.118 41.2508 39.4045 41.3044C39.4723 41.3175 39.5413 41.3241 39.6091 41.3241C40.133 41.3241 40.5847 40.9489 40.682 40.4327C40.903 39.2623 41.0156 38.0603 41.0156 36.8594V32.8125H41.5625C42.1666 32.8125 42.6562 32.3228 42.6562 31.7188V27.3438C42.6562 26.7397 42.1666 26.25 41.5625 26.25H41.0156V25.375C41.0156 23.7463 42.1338 22.374 43.6427 21.9852C43.8423 22.25 44.1585 22.4219 44.5156 22.4219H47.7969V22.9688C47.7969 23.5728 48.2865 24.0625 48.8906 24.0625H54.3594C54.9635 24.0625 55.4531 23.5728 55.4531 22.9688V5.46875C55.4531 4.86467 54.9635 4.375 54.3594 4.375ZM17.5 30.625H3.28125V28.4375H17.5V30.625ZM15.8594 12.0312V26.25H4.92188V12.0312H15.8594ZM8.75 9.84375V7.65625H12.0312V9.84375H8.75ZM14.2188 9.84375V7.65625H16.4062V9.84375H14.2188ZM6.5625 9.84375H4.375V7.65625H6.5625V9.84375ZM2.73438 5.46875V2.1875H18.0469V5.46875H2.73438ZM40.4688 30.625H26.25V28.4375H40.4688V30.625ZM43.4219 19.793C40.8073 20.3044 38.8281 22.613 38.8281 25.375V26.25H27.8906V25.1562C27.8906 16.4036 34.7809 9.22972 43.4219 8.77308V19.793ZM47.7969 20.2344H45.6094V18.0469H47.7969V20.2344ZM47.7969 15.8594H45.6094V12.5781H47.7969V15.8594ZM47.7969 10.3906H45.6094V8.20312H47.7969V10.3906ZM53.2656 21.875H49.9844V6.5625H53.2656V21.875Z" fill="black"/>
<path d="M11.5349 43.9392C11.3315 43.6374 10.9924 43.458 10.6282 43.458C10.4094 43.458 10.1984 43.5225 10.0168 43.645C9.77507 43.8091 9.61101 44.0574 9.55523 44.3439C9.49945 44.6305 9.5596 44.9214 9.72257 45.1642C11.699 48.0889 14.6554 50.2042 18.0482 51.1197C18.1423 51.1448 18.2385 51.158 18.3337 51.158C18.8269 51.158 19.2612 50.8255 19.3891 50.3486C19.5466 49.7667 19.201 49.1652 18.618 49.0077C15.7327 48.23 13.2171 46.4297 11.5349 43.9392Z" fill="black"/>
<path d="M32.023 18.1356C31.7266 18.662 31.913 19.3288 32.4394 19.6252C32.609 19.7208 32.7933 19.7662 32.975 19.7662C33.3572 19.7662 33.7282 19.5656 33.9291 19.209C34.0402 19.0116 34.1586 18.8147 34.2808 18.6235C35.4206 16.8418 37.0113 15.3813 38.8808 14.3996C39.4157 14.1189 39.6216 13.4576 39.3408 12.9228C39.06 12.388 38.3986 12.1822 37.8641 12.4628C35.6586 13.6208 33.7824 15.3434 32.4382 17.4446C32.2938 17.6703 32.1541 17.9027 32.023 18.1356Z" fill="black"/>
<path d="M38.0457 45.9736C38.6497 45.9736 39.1394 45.4839 39.1394 44.8799C39.1394 44.2758 38.6497 43.7861 38.0457 43.7861C37.4416 43.7861 36.9519 44.2758 36.9519 44.8799C36.9519 45.4839 37.4416 45.9736 38.0457 45.9736Z" fill="black"/>
</g>
<defs>
<clipPath id="clip0_137_25">
<rect width="56" height="56" fill="white"/>
</clipPath>
</defs>
</svg>
