<svg width="56" height="56" viewBox="0 0 56 56" fill="none" xmlns="http://www.w3.org/2000/svg">
<path d="M54.9069 34.2435V12.6875C54.9069 10.3857 53.1196 8.49461 50.86 8.32606V6.34375C50.86 5.73978 50.3704 5.25 49.7663 5.25H49.5475V1.09375C49.5475 0.489781 49.0579 0 48.4538 0H44.0788C43.4747 0 42.985 0.489781 42.985 1.09375V5.25H42.7663C42.1622 5.25 41.6725 5.73978 41.6725 6.34375V8.32606C39.413 8.49461 37.6257 10.3856 37.6257 12.6875V17.9936H22.5312C21.9272 17.9936 21.4375 18.4834 21.4375 19.0874V23.1654C21.4375 23.1656 21.4375 23.1657 21.4375 23.166V23.1705C21.4375 23.205 21.4396 23.2389 21.4426 23.2725C21.4429 23.2753 21.4427 23.2781 21.4431 23.2809V23.2812C21.4432 23.282 21.4432 23.2828 21.4433 23.2835L22.1828 30.5795C21.0124 27.9631 18.9 25.857 16.2794 24.6944V21.8965C16.2794 21.2926 15.7897 20.8028 15.1856 20.8028H12.6873V17.6022H14.0396L15.5824 19.1451C15.796 19.3586 16.0759 19.4655 16.3558 19.4655C16.6357 19.4655 16.9157 19.3586 17.1292 19.1451C17.5563 18.718 17.5564 18.0254 17.1292 17.5982L15.2659 15.7349C15.0608 15.5298 14.7826 15.4145 14.4925 15.4145H8.00155C7.39747 15.4145 6.9078 15.9043 6.9078 16.5083C6.9078 17.1123 7.39747 17.602 8.00155 17.602H10.4999V20.8027H8.00155C7.39747 20.8027 6.9078 21.2925 6.9078 21.8964V24.6943C2.84277 26.4977 0 30.5716 0 35.2976C0 35.3043 0.000875 35.3107 0.000984375 35.3174C0.000875 35.3241 0 35.3305 0 35.3372V47.7685C0 52.3074 3.69261 56 8.23145 56H47.7684C52.3074 56 56 52.3074 56 47.7685V35.3372C56 34.7335 55.5107 34.2439 54.9069 34.2435ZM45.1725 2.1875H47.36V5.25H45.1725V2.1875ZM43.86 7.4375H48.6725V8.3125H43.86V7.4375ZM14.092 22.9902V23.9759C13.287 23.7984 12.4513 23.704 11.5936 23.704C10.736 23.704 9.9003 23.7984 9.0953 23.9759V22.9902H14.092ZM11.5936 25.8916C16.4237 25.8916 20.4133 29.5515 20.9392 34.2435H2.24809C2.77397 29.5515 6.76353 25.8916 11.5936 25.8916ZM5.90625 53.3467C3.72455 52.4338 2.1875 50.2776 2.1875 47.7685V36.431H5.90625V53.3467ZM14.3063 53.8125H8.23145C8.1853 53.8125 8.13969 53.8101 8.09375 53.809V36.431H14.3063V53.8125ZM22.7063 53.8125H16.4937V36.431H22.7063V53.8125ZM23.625 20.1811H36.5355V22.0768H23.625V20.1811ZM31.1062 53.8125H24.8938V36.431H31.1062V53.8125ZM28.2925 34.2435C28.6546 33.6317 29.3194 33.2195 30.0802 33.2195C30.841 33.2195 31.5059 33.6318 31.8679 34.2435H28.2925ZM30.0802 31.032C28.0918 31.032 26.4171 32.3996 25.9466 34.2435H24.7529L23.7415 24.2643H36.4491L35.6895 34.2435H34.2138C33.7433 32.3995 32.0686 31.032 30.0802 31.032ZM39.5063 53.8125H33.2938V36.431H38.7194H39.5063V53.8125ZM39.8132 12.6875C39.8132 11.4813 40.7945 10.5 42.0007 10.5H50.5319C51.7381 10.5 52.7194 11.4813 52.7194 12.6875V21.1659C48.5154 21.5858 44.8555 24.3976 43.4108 28.43C43.2071 28.9986 43.5029 29.6249 44.0717 29.8285C44.1935 29.8722 44.318 29.893 44.4405 29.893C44.8894 29.893 45.3101 29.6145 45.4702 29.1678C46.6039 26.0034 49.4389 23.7755 52.7195 23.3658V34.2435H39.8133L39.8132 12.6875ZM47.9062 53.809C47.8603 53.8101 47.8147 53.8125 47.7685 53.8125H41.6938V36.431H47.9062V53.809ZM53.8125 47.7685C53.8125 50.2775 52.2755 52.4338 50.0938 53.3467V36.431H53.8125V47.7685Z" fill="black"/>
<path d="M44.9539 32.1562C44.9539 31.5523 44.4642 31.0625 43.8601 31.0625C43.256 31.0625 42.7664 31.5523 42.7664 32.1562L42.7665 32.2095C42.7707 32.811 43.2595 33.2956 43.8601 33.2956C43.8627 33.2956 43.8654 33.2956 43.868 33.2956C44.4721 33.2913 44.9582 32.7982 44.9541 32.1942L44.9539 32.1562Z" fill="black"/>
</svg>
