<svg width="56" height="56" viewBox="0 0 56 56" fill="none" xmlns="http://www.w3.org/2000/svg">
<path d="M45.9375 19.5734H10.0625C9.45842 19.5734 8.96875 20.0631 8.96875 20.6671V44.2921C8.96875 44.8961 9.45842 45.3859 10.0625 45.3859H45.9375C46.5416 45.3859 47.0312 44.8961 47.0312 44.2921V20.6671C47.0312 20.0631 46.5416 19.5734 45.9375 19.5734ZM26.9062 43.1984H11.1562V21.7609H26.9062V43.1984ZM44.8438 43.1984H29.0938V21.7609H44.8438V43.1984Z" fill="black"/>
<path d="M28.0121 47.4719H28C27.3959 47.4719 26.9062 47.9617 26.9062 48.5657C26.9062 49.1696 27.3959 49.6594 28 49.6594H28.0121C28.6162 49.6594 29.1059 49.1696 29.1059 48.5657C29.1059 47.9617 28.6162 47.4719 28.0121 47.4719Z" fill="black"/>
<path d="M33.2766 30.2047C32.6725 30.2047 32.1829 30.6945 32.1829 31.2985V31.3126C32.1829 31.9167 32.6725 32.4063 33.2766 32.4063C33.8807 32.4063 34.3704 31.9165 34.3704 31.3126V31.2985C34.3704 30.6945 33.8807 30.2047 33.2766 30.2047Z" fill="black"/>
<path d="M22.7234 30.2047C22.1193 30.2047 21.6296 30.6945 21.6296 31.2985V31.3126C21.6296 31.9165 22.1193 32.4063 22.7234 32.4063C23.3275 32.4063 23.8171 31.9165 23.8171 31.3126V31.2985C23.8171 30.6945 23.3275 30.2047 22.7234 30.2047Z" fill="black"/>
<path d="M51.625 7.65723V7.00022C51.625 6.39614 51.1353 5.90647 50.5312 5.90647H36.0938V4.81709H36.3125C36.9166 4.81709 37.4062 4.32742 37.4062 3.72334C37.4062 3.11927 36.9166 2.62959 36.3125 2.62959H33.6875C33.0834 2.62959 32.5938 3.11927 32.5938 3.72334C32.5938 4.32742 33.0834 4.81709 33.6875 4.81709H33.9062V5.90647H26.25V3.9375C26.25 2.97259 27.0351 2.1875 28 2.1875C28.9649 2.1875 29.75 2.97259 29.75 3.9375C29.75 4.54158 30.2397 5.03125 30.8438 5.03125C31.4478 5.03125 31.9375 4.54158 31.9375 3.9375C31.9375 1.7663 30.1712 0 28 0C25.8288 0 24.0625 1.7663 24.0625 3.9375V5.90636H22.0938V4.81698H22.3125C22.9166 4.81698 23.4062 4.32731 23.4062 3.72323C23.4062 3.11916 22.9166 2.62948 22.3125 2.62948H19.6875C19.0834 2.62948 18.5938 3.11916 18.5938 3.72323C18.5938 4.32731 19.0834 4.81698 19.6875 4.81698H19.9062V5.90636H5.46875C4.86467 5.90636 4.375 6.39603 4.375 7.00011V7.65713C4.375 10.7464 5.80584 13.5073 8.03917 15.3134H5.46875C4.86467 15.3134 4.375 15.803 4.375 16.4071V48.5657V54.9062C4.375 55.5102 4.86467 56 5.46875 56H8.96875C9.57283 56 10.0625 55.5102 10.0625 54.9062V49.6594H24.2043C24.8083 49.6594 25.298 49.1696 25.298 48.5657C25.298 47.9617 24.8083 47.4719 24.2043 47.4719H6.5625V17.501H49.4375V47.472H47.0312H32.1057C31.5016 47.472 31.012 47.9618 31.012 48.5658C31.012 49.1698 31.5016 49.6595 32.1057 49.6595H45.9375V54.9062C45.9375 55.5102 46.4272 56 47.0312 56H50.5312C51.1353 56 51.625 55.5102 51.625 54.9062V48.5657V16.4072C51.625 15.8032 51.1353 15.3135 50.5312 15.3135H47.9608C50.1942 13.5074 51.625 10.7464 51.625 7.65723ZM7.875 49.6594V53.8125H6.5625V49.6594H7.875ZM49.4375 53.8125H48.125V49.6594H49.4375V53.8125ZM41.7811 15.3135H14.2188C10.1437 15.3135 6.80203 12.1132 6.57475 8.09397H45.4886C45.0002 10.0438 43.2375 11.4919 41.1433 11.4919C40.5392 11.4919 40.0495 11.9816 40.0495 12.5857C40.0495 13.1897 40.5392 13.6794 41.1433 13.6794C44.448 13.6794 47.1975 11.2582 47.7202 8.09397H49.4251C49.1979 12.1132 45.8562 15.3135 41.7811 15.3135Z" fill="black"/>
<path d="M37.6225 11.4918H37.6055C37.0014 11.4918 36.5117 11.9815 36.5117 12.5856C36.5117 13.1896 37.0014 13.6793 37.6055 13.6793H37.6225C38.2266 13.6793 38.7163 13.1896 38.7163 12.5856C38.7163 11.9815 38.2266 11.4918 37.6225 11.4918Z" fill="black"/>
</svg>
