<svg width="56" height="56" viewBox="0 0 56 56" fill="none" xmlns="http://www.w3.org/2000/svg">
<path d="M54.9062 36.3087H10.9375V20.5625H35C35.6041 20.5625 36.0938 20.0728 36.0938 19.4688V17.6461C36.0938 13.7318 32.9093 10.5474 28.995 10.5474H10.9375V7.875H12.6875C13.2916 7.875 13.7812 7.38533 13.7812 6.78125V1.09375C13.7812 0.489672 13.2916 0 12.6875 0H1.09375C0.489672 0 0 0.489672 0 1.09375V54.9062C0 55.5103 0.489672 56 1.09375 56H41.8906C49.6706 56 56 49.6706 56 41.8906V37.4024C56 36.7983 55.5103 36.3087 54.9062 36.3087ZM8.75 19.4688V53.8125H7.65166V45.7734C7.65166 45.1694 7.16198 44.6797 6.55791 44.6797C5.95383 44.6797 5.46416 45.1694 5.46416 45.7734V53.8125H2.1875V2.1875H11.5938V5.6875H9.84375C9.23967 5.6875 8.75 6.17717 8.75 6.78125V11.6411C8.75 12.2452 9.23967 12.7349 9.84375 12.7349H28.995C31.703 12.7349 33.9062 14.9381 33.9062 17.6461V18.375H9.84375C9.23967 18.375 8.75 18.8647 8.75 19.4688ZM53.8125 41.8906C53.8125 48.4644 48.4644 53.8125 41.8906 53.8125H10.9375V38.4962H53.8125V41.8906Z" fill="#232630"/>
<path d="M34.7741 33.919L34.6539 33.3855C34.5212 32.7962 33.9362 32.4262 33.3465 32.5587C32.7572 32.6915 32.3871 33.2768 32.5198 33.8661L32.6399 34.3996C32.7544 34.908 33.2058 35.2533 33.7059 35.2533C33.7856 35.2533 33.8664 35.2445 33.9473 35.2264C34.5366 35.0936 34.9068 34.5083 34.7741 33.919Z" fill="#232630"/>
<path d="M33.9332 30.1845L33.813 29.6509C33.6802 29.0616 33.0951 28.6912 32.5056 28.8243C31.9163 28.9569 31.5462 29.5422 31.679 30.1316L31.799 30.6651C31.9135 31.1734 32.3649 31.5187 32.8651 31.5187C32.9447 31.5187 33.0255 31.51 33.1064 31.4918C33.6958 31.359 34.0659 30.7738 33.9332 30.1845Z" fill="#232630"/>
<path d="M32.2515 22.7151L32.1313 22.1816C31.9985 21.5923 31.4133 21.2221 30.8239 21.3549C30.2346 21.4876 29.8645 22.0729 29.9972 22.6623L30.1174 23.1958C30.2319 23.7042 30.6832 24.0495 31.1833 24.0495C31.263 24.0494 31.3438 24.0408 31.4247 24.0225C32.014 23.8897 32.3842 23.3045 32.2515 22.7151Z" fill="#232630"/>
<path d="M33.0924 26.4499L32.9723 25.9164C32.8396 25.3269 32.2539 24.9568 31.6651 25.0895C31.0758 25.2222 30.7056 25.8074 30.8382 26.3967L30.9582 26.9303C31.0726 27.4388 31.524 27.7841 32.0243 27.7841C32.1039 27.7841 32.1846 27.7753 32.2655 27.7571C32.8548 27.6245 33.225 27.0392 33.0924 26.4499Z" fill="#232630"/>
<path d="M28 21.3281C27.3959 21.3281 26.9062 21.8178 26.9062 22.4219V22.9688C26.9062 23.5728 27.3959 24.0625 28 24.0625C28.6041 24.0625 29.0938 23.5728 29.0938 22.9688V22.4219C29.0938 21.8178 28.6041 21.3281 28 21.3281Z" fill="#232630"/>
<path d="M28 25.1562C27.3959 25.1562 26.9062 25.6459 26.9062 26.25V26.7969C26.9062 27.401 27.3959 27.8906 28 27.8906C28.6041 27.8906 29.0938 27.401 29.0938 26.7969V26.25C29.0938 25.6459 28.6041 25.1562 28 25.1562Z" fill="#232630"/>
<path d="M28 28.9844C27.3959 28.9844 26.9062 29.474 26.9062 30.0781V30.625C26.9062 31.2291 27.3959 31.7188 28 31.7188C28.6041 31.7188 29.0938 31.2291 29.0938 30.625V30.0781C29.0938 29.474 28.6041 28.9844 28 28.9844Z" fill="#232630"/>
<path d="M28 32.8125C27.3959 32.8125 26.9062 33.3022 26.9062 33.9062V34.4531C26.9062 35.0572 27.3959 35.5469 28 35.5469C28.6041 35.5469 29.0938 35.0572 29.0938 34.4531V33.9062C29.0938 33.3023 28.6041 32.8125 28 32.8125Z" fill="#232630"/>
<path d="M22.6536 32.5586C22.0645 32.4262 21.4788 32.796 21.3462 33.3853L21.226 33.9189C21.0933 34.5082 21.4634 35.0935 22.0527 35.2262C22.1337 35.2445 22.2145 35.2531 22.2941 35.2531C22.7943 35.2531 23.2457 34.9078 23.3602 34.3995L23.4804 33.8659C23.6131 33.2766 23.243 32.6914 22.6536 32.5586Z" fill="#232630"/>
<path d="M25.1759 21.3549C24.5869 21.2221 24.0013 21.5923 23.8685 22.1816L23.7483 22.7151C23.6157 23.3044 23.9858 23.8897 24.5751 24.0225C24.656 24.0408 24.7369 24.0494 24.8165 24.0494C25.3166 24.0494 25.768 23.7042 25.8824 23.1958L26.0026 22.6623C26.1353 22.073 25.7652 21.4877 25.1759 21.3549Z" fill="#232630"/>
<path d="M24.3352 25.0895C23.7457 24.9565 23.1606 25.327 23.028 25.9164L22.9079 26.45C22.7752 27.0393 23.1453 27.6245 23.7347 27.7572C23.8157 27.7755 23.8964 27.7841 23.976 27.7841C24.4761 27.784 24.9276 27.4387 25.042 26.9303L25.1621 26.3968C25.2948 25.8075 24.9246 25.2222 24.3352 25.0895Z" fill="#232630"/>
<path d="M23.494 28.8241C22.9048 28.691 22.3193 29.0615 22.1866 29.6508L22.0664 30.1843C21.9338 30.7736 22.3039 31.3589 22.8932 31.4917C22.9741 31.5099 23.055 31.5186 23.1346 31.5186C23.6346 31.5186 24.086 31.1734 24.2006 30.665L24.3206 30.1315C24.4534 29.5422 24.0833 28.9569 23.494 28.8241Z" fill="#232630"/>
<path d="M50.2379 40.7969C49.6338 40.7969 49.1442 41.2865 49.1442 41.8906C49.1442 45.8903 45.8903 49.1442 41.8906 49.1442C41.2865 49.1442 40.7969 49.6338 40.7969 50.2379C40.7969 50.842 41.2865 51.3317 41.8906 51.3317C47.0964 51.3317 51.3317 47.0964 51.3317 41.8906C51.3317 41.2865 50.842 40.7969 50.2379 40.7969Z" fill="#232630"/>
<path d="M6.5579 40.9062C5.95382 40.9062 5.46415 41.3959 5.46415 42V42.0137C5.46415 42.6176 5.95382 43.1074 6.5579 43.1074C7.16198 43.1074 7.65165 42.6177 7.65165 42.0137V42C7.65165 41.3959 7.16198 40.9062 6.5579 40.9062Z" fill="#232630"/>
<path d="M38.582 49.1442H38.4636C37.8595 49.1442 37.3698 49.6338 37.3698 50.2379C37.3698 50.842 37.8595 51.3317 38.4636 51.3317H38.582C39.1861 51.3317 39.6758 50.842 39.6758 50.2379C39.6758 49.6338 39.1861 49.1442 38.582 49.1442Z" fill="#232630"/>
</svg>
