<svg width="56" height="44" viewBox="0 0 56 44" fill="none" xmlns="http://www.w3.org/2000/svg">
<path d="M53.5938 14.635V4.72192C53.5938 2.36981 51.6802 0.456299 49.3281 0.456299H41.5791C39.2178 0.456299 37.2969 2.37736 37.2969 4.73855V5.7063C37.2969 6.31038 37.7865 6.80005 38.3906 6.80005H46.9219C47.1028 6.80005 47.25 6.94727 47.25 7.12817V14.4577H3.50459C1.57216 14.4577 0 16.0299 0 17.9623C0 19.5112 1.0103 20.8277 2.40625 21.2896V30.7752C2.40625 35.9673 6.28294 40.2706 11.2937 40.9438L10.5609 41.6766C10.1338 42.1037 10.1338 42.7962 10.5609 43.2234C10.7745 43.437 11.0544 43.5437 11.3343 43.5437C11.6142 43.5437 11.8942 43.4368 12.1077 43.2234L14.2951 41.036H41.7048L43.8922 43.2234C44.1058 43.437 44.3857 43.5437 44.6656 43.5437C44.9455 43.5437 45.2255 43.4368 45.439 43.2234C45.8661 42.7962 45.8662 42.1037 45.439 41.6766L44.7062 40.9438C49.7171 40.2706 53.5938 35.9673 53.5938 30.7752V21.2896C54.9897 20.8277 56 19.5112 56 17.9623C56 16.4135 54.9897 15.097 53.5938 14.635ZM46.9219 4.61255H39.4881C39.5535 3.51596 40.4663 2.6438 41.5791 2.6438H49.3281C50.474 2.6438 51.4062 3.576 51.4062 4.72192V14.4563H49.4375V7.12817C49.4375 5.74108 48.309 4.61255 46.9219 4.61255ZM8.09375 16.6452H26.9062V30.9484L26.752 30.8685C25.3405 30.1365 23.655 30.1365 22.241 30.8696L22.2333 30.8736C21.4557 31.2766 20.5278 31.2754 19.7513 30.8699C19.0462 30.5016 18.2723 30.3175 17.4987 30.3175C16.7309 30.3175 15.9634 30.4989 15.2643 30.8615C15.2632 30.862 15.2528 30.8674 15.2516 30.868C14.4718 31.2724 13.541 31.273 12.7607 30.87C12.7591 30.8692 12.7577 30.8685 12.7562 30.8677C11.3446 30.1356 9.65913 30.1356 8.24731 30.8676L8.09375 30.9471V16.6452ZM2.1875 17.9622C2.1875 17.2361 2.77834 16.6452 3.50459 16.6452H5.90625V19.2793H3.50459C2.77834 19.2793 2.1875 18.6885 2.1875 17.9622ZM51.406 30.7752C51.4062 35.2267 47.7846 38.8483 43.333 38.8483H12.6669C8.21537 38.8483 4.59375 35.2267 4.59375 30.7752V21.4669H5.90625V32.6465C5.90625 33.0468 6.11877 33.4248 6.46078 33.6328C6.8028 33.8408 7.23603 33.8557 7.59205 33.6714L9.25433 32.8094C10.0342 32.4051 10.965 32.4044 11.7451 32.8074C11.7467 32.8081 11.7482 32.809 11.7497 32.8098C13.1614 33.5417 14.8469 33.5417 16.2552 32.8115C16.2563 32.811 16.2667 32.8056 16.2679 32.8049C17.042 32.4036 17.9655 32.4051 18.7385 32.8087C20.1467 33.5442 21.8295 33.5467 23.2424 32.8142L23.2501 32.8103C24.0312 32.4053 24.9639 32.4054 25.7449 32.8103L27.4074 33.6724C27.5733 33.7586 27.7561 33.8012 27.9386 33.8012C28.1474 33.8012 28.356 33.7453 28.5386 33.6344C28.8809 33.4265 29.0935 33.0484 29.0935 32.6478V21.4669H51.406V30.7752ZM52.4954 19.2794H29.0938V16.6453H52.4954C53.2217 16.6453 53.8125 17.2362 53.8125 17.9624C53.8125 18.6886 53.2217 19.2794 52.4954 19.2794Z" fill="#232630"/>
</svg>
