<svg width="16" height="12" viewBox="0 0 16 12" fill="none" xmlns="http://www.w3.org/2000/svg">
<path d="M15.3643 6.56003L10.3843 11.56C10.2243 11.72 10.0243 11.8 9.82429 11.8C9.62429 11.8 9.4243 11.72 9.2643 11.56C8.94429 11.24 8.94429 10.74 9.2643 10.42L12.8843 6.78003H1.2043C0.764297 6.78003 0.404297 6.42003 0.404297 5.98003C0.404297 5.54003 0.764297 5.18003 1.2043 5.18003H12.8843L9.2643 1.54004C8.94429 1.22004 8.94429 0.720034 9.2643 0.400034C9.5843 0.0800342 10.0843 0.0800342 10.4043 0.400034L15.3843 5.40003C15.6843 5.74003 15.6843 6.26003 15.3643 6.56003Z" fill="#232630"/>
</svg>
