<svg width="24" height="24" viewBox="0 0 24 24" fill="none" xmlns="http://www.w3.org/2000/svg">
<path d="M16.9449 15.66C17.3049 16.02 17.3049 16.58 16.9449 16.94C16.7649 17.12 16.5449 17.2 16.3049 17.2C16.0649 17.2 15.8449 17.12 15.6649 16.94L12.0049 13.28L8.34491 16.94C8.16491 17.12 7.94492 17.2 7.70492 17.2C7.46492 17.2 7.24493 17.12 7.06493 16.94C6.70493 16.58 6.70493 16.02 7.06493 15.66L10.7249 12L7.06493 8.33998C6.70493 7.97998 6.70493 7.41998 7.06493 7.05998C7.42493 6.69998 7.98491 6.69998 8.34491 7.05998L12.0049 10.72L15.6649 7.05998C16.0249 6.69998 16.5849 6.69998 16.9449 7.05998C17.3049 7.41998 17.3049 7.97998 16.9449 8.33998L13.2849 12L16.9449 15.66Z" fill="black"/>
</svg>
