<svg width="48" height="48" viewBox="0 0 48 48" fill="none" xmlns="http://www.w3.org/2000/svg">
<path d="M42.2396 14.72C42.2396 14.68 42.2396 14.6 42.2396 14.56C42.2396 14.52 42.2396 14.4799 42.2396 14.4399C42.2396 14.3999 42.1996 14.36 42.1996 14.28C42.1996 14.24 42.1596 14.16 42.1596 14.12C42.1596 14.08 42.1197 14.0399 42.0797 13.9999C42.0396 13.9599 42.0396 13.8799 41.9996 13.8399V13.7999C41.9596 13.7599 41.9596 13.76 41.9196 13.72C41.8796 13.68 41.8396 13.6399 41.7996 13.5999C41.7596 13.5599 41.7197 13.52 41.6796 13.52C41.6397 13.48 41.5996 13.4399 41.5596 13.4399C41.5196 13.3999 41.4796 13.4 41.4396 13.36C41.3996 13.32 41.3596 13.32 41.3196 13.28C41.2796 13.28 41.1996 13.2399 41.1596 13.2399C41.1196 13.2399 41.0796 13.1999 40.9996 13.1999C40.9596 13.1999 40.8796 13.1999 40.8396 13.1999C40.7996 13.1999 40.7596 13.1999 40.7196 13.1999H7.11959C7.07959 13.1999 7.03962 13.1999 6.99962 13.1999C6.95962 13.1999 6.87961 13.1999 6.83961 13.1999C6.79961 13.1999 6.7596 13.2399 6.6796 13.2399C6.6396 13.2399 6.55959 13.28 6.51959 13.28C6.47959 13.28 6.43962 13.32 6.39962 13.36C6.35962 13.4 6.3196 13.3999 6.2796 13.4399C6.2396 13.4799 6.19963 13.48 6.15963 13.52C6.11963 13.56 6.07961 13.5999 6.03961 13.5999C5.99961 13.6399 5.95959 13.68 5.91959 13.72C5.87959 13.76 5.87961 13.7599 5.83961 13.7999V13.8399C5.79961 13.8799 5.75963 13.9599 5.75963 13.9999C5.71963 14.0399 5.7196 14.08 5.6796 14.12C5.6396 14.16 5.63961 14.2 5.63961 14.28C5.63961 14.32 5.59962 14.3599 5.59962 14.4399C5.59962 14.4799 5.59962 14.52 5.59962 14.56C5.59962 14.6 5.59962 14.68 5.59962 14.72V14.76V33.16C5.59962 34.04 6.31962 34.76 7.19962 34.76H40.7996C41.6796 34.76 42.3996 34.04 42.3996 33.16L42.2396 14.72C42.2396 14.76 42.2396 14.72 42.2396 14.72ZM35.7996 16.36L23.8396 25.2399L11.8796 16.36H35.7996ZM8.63961 31.56V17.96L22.8796 28.52C23.1596 28.72 23.4796 28.8399 23.8396 28.8399C24.1996 28.8399 24.5196 28.72 24.7996 28.52L39.0396 17.96V31.56H8.63961Z" fill="#232630"/>
</svg>
