<svg width="48" height="48" viewBox="0 0 48 48" fill="none" xmlns="http://www.w3.org/2000/svg">
<path d="M42.2904 15.3599L38.4904 33.6799C38.3703 34.2399 37.8904 34.64 37.3304 34.64C37.2504 34.64 37.1704 34.6399 37.0904 34.5999C36.4504 34.4799 36.0104 33.8399 36.1704 33.1999L39.7304 16.0799L16.8104 11.44L16.2504 13.9999C16.0904 14.6399 15.4504 15.04 14.8104 14.92C14.1704 14.76 13.7704 14.1199 13.8904 13.4799L14.7304 9.75991C14.8904 9.11991 15.4904 8.71999 16.1304 8.83999L41.4104 13.9599C41.7304 14.0399 42.0104 14.1999 42.1704 14.4799C42.2904 14.7199 42.3703 15.0399 42.2904 15.3599ZM34.8104 37.1999C34.8104 38.0799 34.0904 38.7999 33.2104 38.7999H7.21035C6.33035 38.7999 5.61035 38.0799 5.61035 37.1999V17.5999C5.61035 16.7199 6.33035 15.9999 7.21035 15.9999H33.2104C34.0904 15.9999 34.8104 16.7199 34.8104 17.5999V37.1999ZM8.81035 19.1999V29.0799L15.5704 23.5999C16.0904 23.1599 16.9304 23.16 17.4504 23.64L25.0504 30.3599L28.2104 27.64C28.7304 27.2 29.3304 27.2 29.8504 27.64L31.1704 28.9999V19.1999H8.81035ZM31.2104 35.5999V32.6799L28.9704 30.5599L25.9304 33.2799C25.4104 33.7199 24.6504 33.7199 24.1304 33.2799L16.4104 26.52L8.81035 32.72V35.5999H31.2104ZM24.5704 25.72C25.9304 25.72 27.0104 24.6399 27.0104 23.2799C27.0104 21.9199 25.8904 20.84 24.5704 20.84C23.2104 20.84 22.1304 21.9199 22.1304 23.2799C22.1304 24.6399 23.2104 25.72 24.5704 25.72Z" fill="#232630"/>
</svg>
