<svg width="48" height="48" viewBox="0 0 48 48" fill="none" xmlns="http://www.w3.org/2000/svg">
<path d="M41.9701 18.08L35.2101 10.88C34.8901 10.56 34.4901 10.36 34.0501 10.36H13.9701C13.5301 10.36 13.0901 10.56 12.8101 10.88L6.05012 18.08C5.45012 18.72 5.49013 19.68 6.09013 20.32L22.8901 37.12C23.2101 37.44 23.6101 37.6 24.0101 37.6C24.4501 37.6 24.8501 37.44 25.1301 37.12L41.9301 20.32C42.5701 19.72 42.5701 18.72 41.9701 18.08ZM16.5701 20.4L19.5301 29.04L10.8901 20.4H16.5701ZM25.3701 13.6L27.9301 17.6H20.0501L22.6101 13.6H25.3701ZM24.0101 33.72V33.64L19.5301 20.4H28.4901L24.0101 33.64V33.72ZM31.4501 20.4H37.1701L28.5301 29.04L31.4501 20.4ZM37.2901 17.6H31.2101L28.6501 13.6H33.3301L37.2901 17.6ZM14.6501 13.6H19.3301L16.7701 17.6H10.6901L14.6501 13.6Z" fill="#232630"/>
</svg>
