<svg width="48" height="48" viewBox="0 0 48 48" fill="none" xmlns="http://www.w3.org/2000/svg">
<path d="M29.5301 42.4C24.5701 42.4 16.7701 40.76 14.8501 39.4C14.4101 39.08 14.1701 38.6 14.1701 38.08V22.44C14.1701 21.96 14.4101 21.48 14.7701 21.2C14.8901 21.12 17.6901 18.92 20.6101 17.28C24.2501 15.28 26.7701 12.48 27.3701 10.72C28.0901 8.56 29.1301 5.59998 32.4101 5.59998C33.9701 5.59998 35.2501 6.47998 35.9301 7.99998C37.2901 11.12 35.8501 15.44 33.4501 18.84C35.0501 19.2 37.0501 19.72 38.2501 20.08C40.4501 20.76 41.8901 22.36 42.2101 24.32C42.4901 26.32 41.4901 28.36 39.3701 29.92C37.8101 34.12 35.1301 40.76 33.1701 41.84C32.4101 42.24 31.0901 42.4 29.5301 42.4ZM17.3701 37.12C20.4101 38.4 29.7701 39.72 31.5301 39.04C32.4501 38.2 34.8101 32.84 36.4501 28.32C36.5701 28 36.7701 27.72 37.0501 27.52C38.3701 26.64 39.0501 25.6 38.9301 24.72C38.8101 24 38.1701 23.4 37.2101 23.08C35.2101 22.44 30.2501 21.36 30.1701 21.36C29.6101 21.24 29.1701 20.84 28.9701 20.28C28.7701 19.72 28.9301 19.12 29.3301 18.72C32.9301 14.84 33.5701 10.88 32.8901 9.27996C32.6901 8.79996 32.4501 8.79998 32.3301 8.79998C31.5301 8.79998 31.1701 9.35999 30.3301 11.76C29.3701 14.56 26.0501 17.92 22.0901 20.08C20.1701 21.12 18.2501 22.52 17.2901 23.24V37.12H17.3701ZM11.0501 38.24V22.28C11.0501 20.84 9.89009 19.68 8.45009 19.68C7.01009 19.68 5.85009 20.84 5.85009 22.28V38.24C5.85009 39.68 7.01009 40.84 8.45009 40.84C9.85009 40.84 11.0501 39.64 11.0501 38.24Z" fill="#232630"/>
</svg>
