<svg width="48" height="48" viewBox="0 0 48 48" fill="none" xmlns="http://www.w3.org/2000/svg">
<path d="M33.0096 8.75999C30.7296 6.71999 27.5296 5.59998 24.0496 5.59998C20.5696 5.59998 17.3696 6.71999 15.0896 8.75999C12.3296 11.24 10.8496 14.96 10.8496 19.56C10.8496 29.6 22.4096 41.4 22.9296 41.88C23.2496 42.2 23.6496 42.36 24.0496 42.36C24.4496 42.36 24.8896 42.2 25.1696 41.88C25.6496 41.4 37.2496 29.6 37.2496 19.56C37.2096 14.96 35.7696 11.24 33.0096 8.75999ZM24.0096 38.44C22.9296 37.24 21.2096 35.24 19.5296 32.84C15.9296 27.72 14.0096 23.16 14.0096 19.6C14.0096 9.59998 21.6496 8.79998 24.0096 8.79998C33.2896 8.79998 34.0096 17.08 34.0096 19.6C34.0096 26.64 26.8496 35.32 24.0096 38.44ZM24.0096 12.52C20.4896 12.52 17.6496 15.44 17.6496 19C17.6496 22.56 20.4896 25.48 24.0096 25.48C27.5296 25.48 30.3696 22.56 30.3696 19C30.3696 15.4 27.5296 12.52 24.0096 12.52ZM24.0096 22.64C22.0496 22.64 20.4496 21 20.4496 18.96C20.4496 16.92 22.0496 15.28 24.0096 15.28C25.9696 15.28 27.5696 16.92 27.5696 18.96C27.5696 21 25.9696 22.64 24.0096 22.64Z" fill="#232630"/>
</svg>
