<svg width="48" height="48" viewBox="0 0 48 48" fill="none" xmlns="http://www.w3.org/2000/svg">
<path d="M41.0099 10.6C40.9699 10.56 40.9699 10.56 40.9299 10.52L36.6499 6.75998C36.0499 6.19998 35.2099 5.92002 34.3299 6.00002C33.5299 6.08002 32.8099 6.39998 32.2499 6.95998C32.2099 6.99998 32.1699 7.04 32.1299 7.08L27.8899 12.4C26.7699 13.6 26.81 15.44 27.97 16.6C28.05 16.68 28.1299 16.76 28.2099 16.8L30.37 18.2401C30.21 19.0001 29.0899 21.16 25.1299 25.12C21.1699 29.08 19.0099 30.2 18.2499 30.36L16.8099 28.2C16.7699 28.12 16.6899 28.04 16.6099 27.96C15.4499 26.8 13.6099 26.8 12.4099 27.88L7.08995 32.12C7.04995 32.16 7.00995 32.2001 6.96995 32.2401C5.76995 33.4401 5.68995 35.44 6.76995 36.6L10.5299 40.88C10.5699 40.92 10.5699 40.92 10.6099 40.96C11.3299 41.68 12.4499 41.96 13.6899 41.96C15.8899 41.96 18.4099 41.08 19.7299 40.56C22.2899 39.56 27.2899 37.12 32.2499 32.16C35.9299 28.48 38.8899 24.0401 40.6499 19.6401C41.4099 17.6401 43.0899 12.68 41.0099 10.6ZM29.97 29.96C22.57 37.36 14.2499 39.4 12.8499 38.68L9.20994 34.52L14.4099 30.4L15.8099 32.52C15.8499 32.56 15.8499 32.6001 15.8899 32.6401C16.3699 33.2401 17.0499 33.56 17.8499 33.6C18.6099 33.64 20.9699 33.76 27.3299 27.4C28.8899 25.84 33.6899 21.04 33.5299 17.92C33.4899 17.12 33.13 16.44 32.57 15.96C32.53 15.92 32.4899 15.88 32.4499 15.88L30.3299 14.48L34.4499 9.28L38.6099 12.92C39.4099 14.24 37.37 22.56 29.97 29.96Z" fill="#232630"/>
</svg>
