<svg width="56" height="56" viewBox="0 0 56 56" fill="none" xmlns="http://www.w3.org/2000/svg">
<g clip-path="url(#clip0_137_26)">
<path d="M21.6524 0.000213623C13.6314 0.000213623 7.10566 6.52596 7.10566 14.547V41.7805C7.10566 43.8762 8.55061 45.6402 10.4963 46.13V49.658C10.4963 51.9487 8.63264 53.8124 6.34189 53.8124C4.05114 53.8124 2.1875 51.9486 2.1875 49.6579V14.5454C2.1875 13.9414 1.69783 13.4517 1.09375 13.4517C0.489672 13.4517 0 13.9414 0 14.5454V49.658C0 53.1549 2.84495 55.9999 6.34189 55.9999C9.83883 55.9999 12.6838 53.1549 12.6838 49.658V46.1301C14.6295 45.6405 16.0744 43.8763 16.0744 41.7805V27.981C17.7931 28.6973 19.6773 29.0937 21.6525 29.0937C25.7556 29.0937 29.0935 25.7556 29.0935 21.6527V7.44121C29.0935 3.33823 25.7554 0.000213623 21.6524 0.000213623ZM13.8869 41.7805C13.8869 43.0474 12.8567 44.078 11.5904 44.078C10.3236 44.078 9.29316 43.0474 9.29316 41.7805V22.2099C10.4556 24.078 12.0292 25.6646 13.8869 26.8422V41.7805ZM20.5588 26.8572C14.2543 26.3017 9.29327 20.9932 9.29327 14.547C9.29327 8.10064 14.2543 2.79212 20.5588 2.2366V26.8572ZM26.9061 9.84385H26.1952C25.5911 9.84385 25.1015 10.3335 25.1015 10.9376C25.1015 11.5417 25.5911 12.0314 26.1952 12.0314H26.9061V15.8595H26.1952C25.5911 15.8595 25.1015 16.3492 25.1015 16.9532C25.1015 17.5573 25.5911 18.047 26.1952 18.047H26.9061V21.6527C26.9061 21.7272 26.9043 21.8014 26.9012 21.8751H25.7576C25.1535 21.8751 24.6638 22.3648 24.6638 22.9689C24.6638 23.5729 25.1535 24.0626 25.7576 24.0626H26.3199C25.6065 25.4384 24.3027 26.4609 22.7462 26.7918V2.30223C23.8035 2.52699 24.7436 3.07146 25.4618 3.82834H25.2929C24.6888 3.82834 24.1991 4.31801 24.1991 4.92209C24.1991 5.52617 24.6888 6.01584 25.2929 6.01584H26.7086C26.8367 6.46942 26.9061 6.94739 26.9061 7.44132V9.84385Z" fill="black"/>
<path d="M32.6531 3.9889C32.4727 3.9423 32.292 3.8968 32.1109 3.8524C31.5238 3.70857 30.932 4.06743 30.7881 4.65423C30.6442 5.2408 31.0031 5.83318 31.5898 5.97701C31.7623 6.01933 31.9345 6.06265 32.1062 6.10694C32.1978 6.13057 32.2898 6.14194 32.3804 6.14194C32.8672 6.14194 33.3113 5.81447 33.4387 5.32141C33.5896 4.73648 33.238 4.13995 32.6531 3.9889Z" fill="black"/>
<path d="M40.0406 6.58198C39.8707 6.50564 39.7003 6.43028 39.5293 6.35579C38.9756 6.11473 38.3309 6.36815 38.0898 6.92192C37.8486 7.47568 38.1021 8.12045 38.6559 8.36151C38.819 8.43249 38.9816 8.50446 39.1437 8.57731C39.2893 8.64271 39.4415 8.67367 39.5915 8.67367C40.0089 8.67367 40.4075 8.43337 40.5898 8.02803C40.8374 7.4771 40.5915 6.8296 40.0406 6.58198Z" fill="black"/>
<path d="M43.5431 8.33877C43.3801 8.24821 43.2165 8.15863 43.0523 8.06993C42.5207 7.78282 41.8573 7.98111 41.5702 8.51268C41.2833 9.04424 41.4815 9.70782 42.0131 9.99482C42.1696 10.0793 42.3253 10.1647 42.4806 10.251C42.649 10.3445 42.8312 10.3889 43.0109 10.3889C43.3952 10.3889 43.7681 10.186 43.9679 9.82616C44.2614 9.2981 44.0712 8.63222 43.5431 8.33877Z" fill="black"/>
<path d="M46.8857 10.3846C46.7307 10.2805 46.5752 10.1773 46.4189 10.0752C45.9135 9.74465 45.2356 9.88618 44.9049 10.3918C44.5742 10.8973 44.7159 11.5751 45.2216 11.9058C45.3703 12.0031 45.5184 12.1013 45.6658 12.2003C45.853 12.3261 46.0651 12.3863 46.2747 12.3863C46.6268 12.3863 46.9725 12.2166 47.1836 11.9024C47.5205 11.401 47.3871 10.7215 46.8857 10.3846Z" fill="black"/>
<path d="M55.7228 18.0945C55.5988 17.9552 55.4739 17.8168 55.3484 17.6789C54.9414 17.2325 54.2496 17.2005 53.8032 17.6075C53.3567 18.0145 53.3248 18.7062 53.7318 19.1527C53.8517 19.2844 53.971 19.4167 54.0896 19.5497C54.3057 19.7922 54.6054 19.9159 54.9066 19.9159C55.1655 19.9159 55.4254 19.8246 55.6338 19.6387C56.0849 19.2369 56.1247 18.5455 55.7228 18.0945Z" fill="black"/>
<path d="M52.9958 15.2802C52.8605 15.1518 52.7243 15.0241 52.5873 14.8972C52.1443 14.4866 51.4523 14.5131 51.0417 14.9561C50.6312 15.3992 50.6575 16.0912 51.1006 16.5018C51.2313 16.6226 51.361 16.7443 51.49 16.8668C51.7015 17.0676 51.9723 17.1673 52.2427 17.1673C52.5321 17.1673 52.8212 17.0531 53.0362 16.8265C53.4521 16.3883 53.434 15.6961 52.9958 15.2802Z" fill="black"/>
<path d="M36.4023 5.12858C36.2267 5.0669 36.0505 5.00619 35.8737 4.94658C35.3012 4.75354 34.6807 5.06066 34.4875 5.63291C34.2942 6.20516 34.6014 6.82587 35.1738 7.01913C35.3422 7.07601 35.5102 7.13376 35.6778 7.1926C35.7977 7.23471 35.9199 7.25462 36.0401 7.25462C36.4915 7.25462 36.9141 6.97287 37.0721 6.52279C37.2722 5.95283 36.9723 5.32863 36.4023 5.12858Z" fill="black"/>
<path d="M50.0437 12.7038C49.8981 12.5873 49.7519 12.4715 49.6049 12.3567C49.1292 11.9847 48.4417 12.0687 48.0695 12.5445C47.6976 13.0203 47.7816 13.7078 48.2575 14.0799C48.3977 14.1895 48.5372 14.2999 48.6761 14.4113C48.8779 14.5729 49.1193 14.6513 49.3592 14.6513C49.6798 14.6513 49.9975 14.511 50.2136 14.2413C50.5913 13.7698 50.5152 13.0815 50.0437 12.7038Z" fill="black"/>
<path d="M51.4161 23.3956C51.2953 23.2524 51.1736 23.11 51.0509 22.9683C50.6552 22.512 49.9645 22.4625 49.5081 22.8581C49.0516 23.2537 49.0022 23.9445 49.3978 24.4009C49.514 24.5349 49.6291 24.6696 49.7433 24.8052C49.9597 25.062 50.269 25.1942 50.5803 25.1942C50.8291 25.1942 51.0793 25.1098 51.2844 24.9368C51.7464 24.5476 51.8054 23.8575 51.4161 23.3956Z" fill="black"/>
<path d="M39.1934 13.6404C39.0271 13.5546 38.8602 13.4701 38.6926 13.3866C38.1517 13.1174 37.4951 13.3375 37.2259 13.8783C36.9568 14.4189 37.1768 15.0755 37.7176 15.3448C37.8761 15.4237 38.0339 15.5036 38.1911 15.5846C38.3514 15.6673 38.5226 15.7065 38.6913 15.7065C39.0877 15.7065 39.4703 15.4902 39.6645 15.1136C39.9412 14.5767 39.7304 13.9171 39.1934 13.6404Z" fill="black"/>
<path d="M55.8648 29.8771C55.7744 29.7124 55.6827 29.5484 55.59 29.3852C55.2915 28.8601 54.6238 28.6766 54.0985 28.975C53.5734 29.2736 53.3898 29.9412 53.6882 30.4664C53.7757 30.6204 53.8623 30.7751 53.9476 30.9304C54.1466 31.2927 54.5209 31.4977 54.9071 31.4977C55.0852 31.4977 55.2658 31.4542 55.4328 31.3623C55.9624 31.0715 56.1557 30.4065 55.8648 29.8771Z" fill="black"/>
<path d="M53.8006 26.5261C53.6944 26.3714 53.5872 26.2176 53.4789 26.0645C53.1301 25.5713 52.4475 25.4543 51.9545 25.8031C51.4613 26.1519 51.3442 26.8345 51.693 27.3276C51.7955 27.4724 51.8969 27.6177 51.9972 27.764C52.2092 28.0728 52.5516 28.2389 52.8999 28.2389C53.1132 28.2389 53.3287 28.1766 53.5179 28.0468C54.016 27.7049 54.1425 27.024 53.8006 26.5261Z" fill="black"/>
<path d="M42.5951 15.6135C42.438 15.5117 42.2802 15.4109 42.1216 15.3113C41.6102 14.9901 40.935 15.1441 40.6135 15.6556C40.2922 16.1672 40.4464 16.8423 40.9578 17.1637C41.1078 17.2578 41.257 17.353 41.4055 17.4492C41.5893 17.5684 41.7954 17.6252 41.9993 17.6252C42.3576 17.6252 42.7088 17.4494 42.9182 17.1262C43.2466 16.6192 43.102 15.9419 42.5951 15.6135Z" fill="black"/>
<path d="M35.6125 12.0141C35.4386 11.9453 35.2641 11.8777 35.0888 11.8113C34.524 11.5971 33.8925 11.8816 33.6784 12.4465C33.4644 13.0115 33.7488 13.6429 34.3137 13.8569C34.4791 13.9196 34.6437 13.9834 34.8079 14.0483C34.9399 14.1006 35.0759 14.1253 35.2098 14.1253C35.6453 14.1253 36.0573 13.8633 36.2272 13.4337C36.4495 12.8718 36.1742 12.2362 35.6125 12.0141Z" fill="black"/>
<path d="M48.7365 20.5157C48.6023 20.3851 48.4674 20.2554 48.3314 20.1265C47.8929 19.711 47.2007 19.7296 46.7852 20.1682C46.3696 20.6067 46.3884 21.299 46.8268 21.7145C46.9555 21.8364 47.0834 21.9591 47.2104 22.0828C47.423 22.2899 47.6983 22.393 47.9734 22.393C48.2582 22.393 48.5427 22.2824 48.7571 22.0624C49.1784 21.6295 49.1693 20.937 48.7365 20.5157Z" fill="black"/>
<path d="M45.7868 17.913C45.6404 17.7962 45.4932 17.6804 45.3452 17.5655C44.868 17.1954 44.1807 17.2821 43.8106 17.7596C43.4404 18.2369 43.5272 18.924 44.0045 19.2941C44.1445 19.4027 44.2836 19.5122 44.4221 19.6227C44.6236 19.7835 44.8644 19.8616 45.1037 19.8616C45.425 19.8616 45.7433 19.7208 45.9593 19.4502C46.3361 18.9781 46.2588 18.2899 45.7868 17.913Z" fill="black"/>
<path d="M31.8885 10.7521C31.7089 10.7011 31.5289 10.6514 31.3483 10.6027C30.7651 10.4459 30.1649 10.7914 30.008 11.3748C29.8511 11.9581 30.1968 12.5582 30.7801 12.7151C30.951 12.761 31.1212 12.8081 31.291 12.8564C31.391 12.8847 31.4915 12.8983 31.5904 12.8983C32.0669 12.8983 32.5053 12.5843 32.642 12.103C32.8069 11.522 32.4696 10.9171 31.8885 10.7521Z" fill="black"/>
<path d="M47.3121 27.5003C47.196 27.3506 47.0789 27.2021 46.9606 27.0549C46.5823 26.584 45.8939 26.5089 45.4229 26.8872C44.9521 27.2655 44.8769 27.9539 45.2553 28.4249C45.3656 28.5624 45.4749 28.7009 45.5831 28.8404C45.7986 29.1185 46.1217 29.2641 46.4483 29.2641C46.6824 29.2641 46.9183 29.1893 47.1177 29.0348C47.5951 28.6648 47.6822 27.9777 47.3121 27.5003Z" fill="black"/>
<path d="M41.7246 21.8933C41.5749 21.7771 41.4242 21.6625 41.2726 21.5493C40.7884 21.188 40.1031 21.2877 39.7419 21.7717C39.3806 22.256 39.4803 22.9412 39.9643 23.3025C40.1051 23.4075 40.2449 23.5139 40.3838 23.6216C40.5832 23.7763 40.8192 23.8512 41.0535 23.8512C41.3799 23.8512 41.703 23.7056 41.9184 23.4278C42.2887 22.9506 42.2019 22.2635 41.7246 21.8933Z" fill="black"/>
<path d="M44.6963 24.5225C44.5627 24.3881 44.428 24.2552 44.292 24.1235C43.8583 23.703 43.1659 23.7138 42.7455 24.1475C42.325 24.5811 42.3357 25.2736 42.7694 25.694C42.8957 25.8165 43.021 25.9402 43.1453 26.0651C43.359 26.28 43.6399 26.3876 43.9208 26.3876C44.1997 26.3876 44.4787 26.2815 44.6921 26.0693C45.1204 25.6433 45.1223 24.9508 44.6963 24.5225Z" fill="black"/>
<path d="M53.7893 41.7843C53.7521 41.5997 53.7135 41.4156 53.6733 41.2321C53.5444 40.6419 52.9615 40.2679 52.3714 40.3968C51.7813 40.5256 51.4073 41.1085 51.5361 41.6987C51.5738 41.8708 51.61 42.0435 51.645 42.2169C51.7498 42.7361 52.206 43.0945 52.716 43.0945C52.7877 43.0945 52.8604 43.0874 52.9334 43.0727C53.5256 42.9533 53.9087 42.3765 53.7893 41.7843Z" fill="black"/>
<path d="M51.3786 34.2773C51.3007 34.1046 51.2215 33.9328 51.141 33.762C50.8834 33.2157 50.2318 32.9813 49.6852 33.2391C49.1388 33.4967 48.9047 34.1484 49.1623 34.6949C49.2376 34.8546 49.3116 35.0151 49.3843 35.1764C49.5669 35.5812 49.9651 35.8209 50.3821 35.8209C50.5323 35.8209 50.6851 35.7897 50.8309 35.724C51.3818 35.4756 51.6269 34.8279 51.3786 34.2773Z" fill="black"/>
<path d="M52.7955 37.964C52.7379 37.7845 52.6791 37.6059 52.6188 37.4279C52.4251 36.8558 51.8043 36.5489 51.2321 36.7427C50.6599 36.9364 50.3531 37.5573 50.5468 38.1294C50.6034 38.2962 50.6585 38.4639 50.7125 38.6321C50.8614 39.0963 51.2911 39.3922 51.7538 39.3922C51.8643 39.3921 51.977 39.3751 52.088 39.3395C52.6632 39.1549 52.98 38.5392 52.7955 37.964Z" fill="black"/>
<path d="M38.4318 19.6721C38.2681 19.5769 38.1034 19.4834 37.9379 19.3915C37.4097 19.0982 36.7438 19.2886 36.4507 19.8168C36.1575 20.3448 36.3479 21.0107 36.876 21.304C37.0292 21.3891 37.1815 21.4756 37.3332 21.5637C37.5062 21.6641 37.6951 21.7118 37.8815 21.7118C38.2586 21.7118 38.6254 21.5167 38.8284 21.1672C39.1317 20.6448 38.9542 19.9755 38.4318 19.6721Z" fill="black"/>
<path d="M49.5456 30.7703C49.4484 30.6079 49.3499 30.4467 49.25 30.2864C48.931 29.7736 48.2565 29.6166 47.7435 29.9357C47.2307 30.2549 47.0737 30.9294 47.3928 31.4423C47.4861 31.5922 47.5782 31.743 47.6692 31.8947C47.8743 32.2368 48.2366 32.4264 48.6084 32.4264C48.7998 32.4264 48.9936 32.3762 49.1696 32.2707C49.6878 31.96 49.8562 31.2884 49.5456 30.7703Z" fill="black"/>
<path d="M34.8642 17.9169C34.689 17.8455 34.513 17.7757 34.3362 17.7077C33.7725 17.4907 33.1396 17.7718 32.9227 18.3356C32.7057 18.8993 32.9868 19.5323 33.5505 19.7492C33.7137 19.812 33.8762 19.8764 34.038 19.9424C34.1733 19.9976 34.3131 20.0237 34.4506 20.0237C34.8819 20.0237 35.2908 19.7668 35.4638 19.3427C35.6919 18.7835 35.4234 18.1451 34.8642 17.9169Z" fill="black"/>
<path d="M31.0827 16.6794L30.9973 16.6581C30.4112 16.5132 29.8179 16.8707 29.6727 17.457C29.5275 18.0435 29.885 18.6365 30.4715 18.7817L30.5531 18.8019C30.642 18.8241 30.731 18.8347 30.8188 18.8347C31.309 18.8347 31.7551 18.5026 31.8791 18.0054C32.0254 17.4194 31.6688 16.8257 31.0827 16.6794Z" fill="black"/>
<path d="M47.7587 45.0345C47.7327 44.8464 47.7048 44.6589 47.6751 44.4721C47.5804 43.8755 47.0202 43.4686 46.4234 43.5633C45.8268 43.658 45.42 44.2185 45.5146 44.815C45.542 44.9875 45.5678 45.1606 45.5919 45.3344C45.6677 45.882 46.1363 46.2784 46.6738 46.2784C46.7238 46.2784 46.7743 46.2749 46.8252 46.2679C47.4236 46.1851 47.8415 45.6329 47.7587 45.0345Z" fill="black"/>
<path d="M48.0249 48.4315C48.013 47.8275 47.5169 47.3454 46.9098 47.3594C46.3059 47.3712 45.8259 47.8705 45.8379 48.4744C45.8413 48.6491 45.843 48.8242 45.843 48.9998C45.843 49.6038 46.3327 50.0935 46.9368 50.0935C47.5408 50.0935 48.0305 49.6038 48.0305 48.9998C48.0305 48.8099 48.0286 48.6205 48.0249 48.4315Z" fill="black"/>
<path d="M46.938 41.1415C46.8857 40.9589 46.8317 40.7771 46.776 40.5962C46.5983 40.0189 45.986 39.6952 45.4088 39.8728C44.8316 40.0505 44.5077 40.6627 44.6854 41.2399C44.7368 41.4069 44.7866 41.5746 44.8348 41.7431C44.9722 42.2234 45.41 42.5364 45.8859 42.5364C45.9855 42.5363 46.0867 42.5226 46.1872 42.4938C46.7679 42.3277 47.1041 41.7223 46.938 41.1415Z" fill="black"/>
<path d="M31.5173 23.8884C31.3384 23.8212 31.1587 23.7563 30.9781 23.6935C30.4074 23.4952 29.7841 23.797 29.5858 24.3676C29.3875 24.9382 29.6893 25.5615 30.2599 25.7598C30.4235 25.8167 30.5862 25.8755 30.7481 25.9363C30.8748 25.9839 31.0047 26.0064 31.1325 26.0064C31.5751 26.0064 31.9917 25.7357 32.1566 25.2969C32.3691 24.7314 32.0828 24.1008 31.5173 23.8884Z" fill="black"/>
<path d="M38.4115 27.9127C38.2645 27.7907 38.1161 27.6703 37.9666 27.5518C37.4931 27.1765 36.8052 27.2565 36.4301 27.7298C36.055 28.2033 36.1347 28.8912 36.6082 29.2663C36.7446 29.3744 36.8797 29.484 37.0136 29.5953C37.218 29.7651 37.4656 29.8478 37.712 29.8478C38.0259 29.8478 38.3376 29.7134 38.5539 29.4529C38.9398 28.9883 38.8761 28.2987 38.4115 27.9127Z" fill="black"/>
<path d="M45.5723 37.4015C45.4941 37.2274 45.4142 37.0544 45.3325 36.8823C45.0732 36.3365 44.4207 36.1042 43.8753 36.3636C43.3296 36.6228 43.0974 37.2751 43.3565 37.8208C43.4316 37.9789 43.505 38.138 43.577 38.2981C43.7592 38.7035 44.1579 38.9438 44.5753 38.9438C44.7251 38.9438 44.8773 38.9129 45.0229 38.8475C45.5738 38.6 45.8198 37.9526 45.5723 37.4015Z" fill="black"/>
<path d="M35.1353 25.6132C34.9704 25.5167 34.8043 25.4221 34.6371 25.3297C34.1086 25.0372 33.4431 25.2287 33.1506 25.7573C32.8581 26.2859 33.0496 26.9513 33.5781 27.2438C33.7299 27.3278 33.8807 27.4136 34.0304 27.5013C34.2041 27.6029 34.3942 27.6512 34.5819 27.6512C34.9576 27.6512 35.3234 27.4575 35.5269 27.1097C35.8319 26.5883 35.6566 25.9183 35.1353 25.6132Z" fill="black"/>
<path d="M41.276 30.7011C41.15 30.5576 41.0224 30.4159 40.8936 30.2754C40.485 29.8305 39.7931 29.8013 39.3482 30.2098C38.9034 30.6184 38.874 31.3104 39.2826 31.7552C39.4007 31.8837 39.5173 32.0136 39.6327 32.1449C39.849 32.391 40.1511 32.5167 40.4548 32.5167C40.7112 32.5167 40.9686 32.4271 41.1763 32.2445C41.63 31.846 41.6747 31.1549 41.276 30.7011Z" fill="black"/>
<path d="M43.6754 33.8923C43.5726 33.7316 43.468 33.5722 43.362 33.4141C43.0255 32.9125 42.346 32.7785 41.8444 33.115C41.3428 33.4516 41.2089 34.131 41.5454 34.6326C41.6429 34.7779 41.7388 34.9242 41.8333 35.0719C42.0421 35.3979 42.3949 35.576 42.7554 35.576C42.9573 35.576 43.1615 35.5201 43.3442 35.4032C43.8528 35.0774 44.0011 34.4009 43.6754 33.8923Z" fill="black"/>
</g>
<defs>
<clipPath id="clip0_137_26">
<rect width="56" height="56" fill="white"/>
</clipPath>
</defs>
</svg>
