<svg width="48" height="48" viewBox="0 0 48 48" fill="none" xmlns="http://www.w3.org/2000/svg">
<path d="M24.0104 5.59998C13.8504 5.59998 5.61035 13.84 5.61035 24C5.61035 34.16 13.8504 42.4 24.0104 42.4C34.1704 42.4 42.4104 34.16 42.4104 24C42.4104 13.84 34.1704 5.59998 24.0104 5.59998ZM24.0104 39.2C15.6104 39.2 8.81035 32.4 8.81035 24C8.81035 15.6 15.6104 8.79998 24.0104 8.79998C32.4104 8.79998 39.2104 15.6 39.2104 24C39.2104 32.4 32.4104 39.2 24.0104 39.2ZM30.1304 27.84C30.7704 28.48 30.7704 29.48 30.1304 30.12C29.8104 30.44 29.4104 30.6 29.0104 30.6C28.6104 30.6 28.2103 30.44 27.8903 30.12L22.9304 25.1599C22.6104 24.8399 22.4503 24.44 22.4503 24.04V14.52C22.4503 13.64 23.1703 12.92 24.0503 12.92C24.9303 12.92 25.6503 13.64 25.6503 14.52V23.4L30.1304 27.84Z" fill="#232630"/>
</svg>
