<svg width="56" height="56" viewBox="0 0 56 56" fill="none" xmlns="http://www.w3.org/2000/svg">
<path d="M51.9531 4.42969C50.7227 4.42969 49.6196 4.98225 48.8768 5.85156H7.12316C6.38028 4.98225 5.27723 4.42969 4.04688 4.42969C1.81541 4.42969 0 6.24509 0 8.47656C0 10.708 1.81541 12.5234 4.04688 12.5234C5.04798 12.5234 5.96466 12.1572 6.67188 11.5528V50.4744C6.67188 51.0785 7.16166 51.5681 7.76562 51.5681C8.36959 51.5681 8.85938 51.0785 8.85938 50.4744V32.373L15.4757 38.9893C15.6893 39.203 15.9692 39.3097 16.2491 39.3097C16.529 39.3097 16.8089 39.203 17.0225 38.9893L24.7256 31.2862L25.8346 32.3951C26.2617 32.8223 26.954 32.8223 27.3815 32.3951C27.8086 31.968 27.8086 31.2755 27.3815 30.8483L26.2655 29.7324L33.2023 22.7957L40.139 29.7324L33.2023 36.6691L32.2305 35.6973C31.8035 35.2702 31.1112 35.2702 30.6836 35.6973C30.2565 36.1244 30.2565 36.8169 30.6836 37.244L32.4288 38.9893C32.6339 39.1944 32.9121 39.3097 33.2022 39.3097C33.4923 39.3097 33.7704 39.1944 33.9756 38.9893L40.5781 32.3869V40.6328H16.9225C16.3185 40.6328 15.8288 41.1225 15.8288 41.7266C15.8288 42.3306 16.3185 42.8203 16.9225 42.8203H40.5781V50.4766C40.5781 51.0806 41.0679 51.5703 41.6719 51.5703C42.2758 51.5703 42.7656 51.0806 42.7656 50.4766V32.6211H45.8281C46.4321 32.6211 46.9219 32.1314 46.9219 31.5273V11.1016H48.8768C49.6197 11.9709 50.7228 12.5234 51.9531 12.5234C54.1846 12.5234 56 10.708 56 8.47656C56 6.24509 54.1846 4.42969 51.9531 4.42969ZM4.04688 10.3359C3.02159 10.3359 2.1875 9.50184 2.1875 8.47656C2.1875 7.45128 3.02159 6.61719 4.04688 6.61719C5.07216 6.61719 5.90625 7.45128 5.90625 8.47656C5.90625 9.50184 5.07216 10.3359 4.04688 10.3359ZM40.5781 27.078L33.9757 20.4755C33.5485 20.0484 32.8561 20.0484 32.4288 20.4755L24.7256 28.1787L23.5512 27.0042C23.124 26.5771 22.4316 26.5771 22.0043 27.0042C21.5772 27.4314 21.5772 28.1239 22.0043 28.5511L23.1857 29.7326L16.2491 36.6693L9.31241 29.7326L16.2491 22.7959L17.6566 24.2036C18.0838 24.6307 18.7762 24.6307 19.2035 24.2036C19.6306 23.7765 19.6306 23.0839 19.2035 22.6567L17.0226 20.4758C16.5954 20.0487 15.903 20.0487 15.4757 20.4758L8.85938 27.0919V17.4818H32.8485C33.4525 17.4818 33.9422 16.9922 33.9422 16.3881C33.9422 15.784 33.4525 15.2943 32.8485 15.2943H8.85938V8.03906H40.5781V27.078ZM44.7344 30.4336H42.7656V11.1016H44.7344V30.4336ZM47.9062 8.91406H42.7656V8.03906H47.9062V8.91406ZM51.9531 10.3359C50.9278 10.3359 50.0938 9.50184 50.0938 8.47656C50.0938 7.45128 50.9278 6.61719 51.9531 6.61719C52.9784 6.61719 53.8125 7.45128 53.8125 8.47656C53.8125 9.50184 52.9784 10.3359 51.9531 10.3359Z" fill="black"/>
<path d="M21.3437 24.7971L21.319 24.7721C20.8922 24.3445 20.1999 24.3438 19.7721 24.7705C19.3445 25.1972 19.3438 25.8896 19.7703 26.3173L19.7952 26.3421C20.0089 26.5562 20.2892 26.6633 20.5694 26.6633C20.849 26.6633 21.1285 26.5568 21.342 26.3438C21.7695 25.9172 21.7703 25.2247 21.3437 24.7971Z" fill="black"/>
<path d="M36.4313 28.9591L33.9756 26.5033C33.7704 26.2983 33.4923 26.183 33.2022 26.183C32.9122 26.183 32.634 26.2983 32.4288 26.5033L29.9732 28.9591C29.5461 29.3863 29.5461 30.0788 29.9732 30.5059L32.4288 32.9616C32.6425 33.1752 32.9223 33.282 33.2022 33.282C33.4821 33.282 33.762 33.1752 33.9756 32.9616L36.4313 30.5059C36.8584 30.0788 36.8584 29.3863 36.4313 28.9591ZM33.2022 30.6414L32.2932 29.7325L33.2022 28.8235L34.1112 29.7325L33.2022 30.6414Z" fill="black"/>
<path d="M19.4782 28.9591L17.0225 26.5033C16.8173 26.2983 16.5392 26.183 16.2491 26.183C15.9591 26.183 15.6809 26.2983 15.4757 26.5033L13.02 28.9591C12.5929 29.3863 12.5929 30.0788 13.02 30.5059L15.4757 32.9616C15.6893 33.1752 15.9692 33.282 16.2491 33.282C16.529 33.282 16.8089 33.1752 17.0225 32.9616L19.4782 30.5059C19.9053 30.0788 19.9053 29.3863 19.4782 28.9591ZM16.249 30.6413L15.34 29.7324L16.249 28.8234L17.158 29.7324L16.249 30.6413Z" fill="black"/>
<path d="M29.9696 33.4356L29.9512 33.4174C29.5234 32.991 28.831 32.9918 28.4044 33.4197C27.978 33.8474 27.9789 34.5399 28.4067 34.9664L28.4251 34.9847C28.6386 35.1975 28.9179 35.3038 29.1974 35.3038C29.4777 35.3038 29.7583 35.1967 29.9719 34.9824C30.3983 34.5546 30.3975 33.8622 29.9696 33.4356Z" fill="black"/>
<path d="M28.8431 19.7618C28.4159 19.3345 27.7236 19.3345 27.2962 19.7618L24.7188 22.3393L22.1414 19.7618C21.7142 19.3346 21.0218 19.3346 20.5945 19.7618C20.1674 20.1889 20.1674 20.8814 20.5945 21.3086L23.9454 24.6596C24.159 24.8732 24.4389 24.9799 24.7188 24.9799C24.9987 24.9799 25.2786 24.8732 25.4922 24.6596L28.8431 21.3086C29.2702 20.8815 29.2702 20.189 28.8431 19.7618Z" fill="black"/>
<path d="M28.843 37.6444L25.4921 34.2935C25.065 33.8665 24.3726 33.8665 23.9454 34.2936L20.5945 37.6445C20.1674 38.0716 20.1674 38.7642 20.5945 39.1914C21.0217 39.6185 21.7141 39.6185 22.1414 39.1914L24.7188 36.6138L27.2962 39.1913C27.5098 39.4049 27.7897 39.5117 28.0696 39.5117C28.3495 39.5117 28.6294 39.4049 28.843 39.1913C29.2701 38.7642 29.2701 38.0716 28.843 37.6444Z" fill="black"/>
<path d="M10.7188 45.9604C10.1148 45.9604 9.625 46.45 9.625 47.0541V50.4744C9.625 51.0785 10.1148 51.5681 10.7188 51.5681C11.3227 51.5681 11.8125 51.0785 11.8125 50.4744V47.0541C11.8125 46.4501 11.3227 45.9604 10.7188 45.9604Z" fill="black"/>
<path d="M14.2188 45.9604C13.6148 45.9604 13.125 46.45 13.125 47.0541V50.4744C13.125 51.0785 13.6148 51.5681 14.2188 51.5681C14.8227 51.5681 15.3125 51.0785 15.3125 50.4744V47.0541C15.3125 46.4501 14.8227 45.9604 14.2188 45.9604Z" fill="black"/>
<path d="M17.7188 45.9604C17.1148 45.9604 16.625 46.45 16.625 47.0541V50.4744C16.625 51.0785 17.1148 51.5681 17.7188 51.5681C18.3227 51.5681 18.8125 51.0785 18.8125 50.4744V47.0541C18.8125 46.4501 18.3227 45.9604 17.7188 45.9604Z" fill="black"/>
<path d="M21.2188 45.9604C20.6148 45.9604 20.125 46.45 20.125 47.0541V50.4744C20.125 51.0785 20.6148 51.5681 21.2188 51.5681C21.8227 51.5681 22.3125 51.0785 22.3125 50.4744V47.0541C22.3125 46.4501 21.8227 45.9604 21.2188 45.9604Z" fill="black"/>
<path d="M24.7188 45.9604C24.1148 45.9604 23.625 46.45 23.625 47.0541V50.4744C23.625 51.0785 24.1148 51.5681 24.7188 51.5681C25.3227 51.5681 25.8125 51.0785 25.8125 50.4744V47.0541C25.8125 46.4501 25.3227 45.9604 24.7188 45.9604Z" fill="black"/>
<path d="M28.2188 45.9604C27.6148 45.9604 27.125 46.45 27.125 47.0541V50.4744C27.125 51.0785 27.6148 51.5681 28.2188 51.5681C28.8227 51.5681 29.3125 51.0785 29.3125 50.4744V47.0541C29.3125 46.4501 28.8227 45.9604 28.2188 45.9604Z" fill="black"/>
<path d="M31.7188 45.9604C31.1148 45.9604 30.625 46.45 30.625 47.0541V50.4744C30.625 51.0785 31.1148 51.5681 31.7188 51.5681C32.3227 51.5681 32.8125 51.0785 32.8125 50.4744V47.0541C32.8125 46.4501 32.3227 45.9604 31.7188 45.9604Z" fill="black"/>
<path d="M35.2188 45.9604C34.6148 45.9604 34.125 46.45 34.125 47.0541V50.4744C34.125 51.0785 34.6148 51.5681 35.2188 51.5681C35.8227 51.5681 36.3125 51.0785 36.3125 50.4744V47.0541C36.3125 46.4501 35.8227 45.9604 35.2188 45.9604Z" fill="black"/>
<path d="M38.7188 45.9604C38.1148 45.9604 37.625 46.45 37.625 47.0541V50.4744C37.625 51.0785 38.1148 51.5681 38.7188 51.5681C39.3227 51.5681 39.8125 51.0785 39.8125 50.4744V47.0541C39.8125 46.4501 39.3227 45.9604 38.7188 45.9604Z" fill="black"/>
<path d="M36.5116 15.2944H36.4939C35.8899 15.2944 35.4001 15.784 35.4001 16.3881C35.4001 16.9922 35.8899 17.4819 36.4939 17.4819H36.5116C37.1156 17.4819 37.6054 16.9922 37.6054 16.3881C37.6054 15.784 37.1157 15.2944 36.5116 15.2944Z" fill="black"/>
<path d="M13.2765 40.6328H13.2588C12.6548 40.6328 12.165 41.1225 12.165 41.7266C12.165 42.3306 12.6548 42.8203 13.2588 42.8203H13.2765C13.8805 42.8203 14.3703 42.3306 14.3703 41.7266C14.3703 41.1225 13.8805 40.6328 13.2765 40.6328Z" fill="black"/>
</svg>
