<svg width="24" height="24" viewBox="0 0 24 24" fill="none" xmlns="http://www.w3.org/2000/svg">
<path d="M12.0052 14.22C14.9652 14.22 17.3852 11.8 17.3852 8.82004C17.3852 5.84004 14.9652 3.42004 12.0052 3.42004C9.04518 3.42004 6.62518 5.84004 6.62518 8.82004C6.62518 11.8 9.04518 14.22 12.0052 14.22ZM12.0052 5.00002C14.0852 5.00002 15.7852 6.70002 15.7852 8.80002C15.7852 10.9 14.0852 12.6 12.0052 12.6C9.92518 12.6 8.22518 10.9 8.22518 8.80002C8.22518 6.70002 9.92518 5.00002 12.0052 5.00002ZM14.5052 14.74C14.2452 14.66 13.9452 14.72 13.7452 14.9L12.0052 16.38L10.2652 14.9C10.0452 14.72 9.76518 14.66 9.50518 14.74C8.38518 15.1 2.80518 17.02 2.80518 19.8C2.80518 20.24 3.16518 20.6 3.60518 20.6H20.4052C20.8452 20.6 21.2052 20.24 21.2052 19.8C21.2052 17.02 15.6252 15.1 14.5052 14.74ZM4.82518 19C5.70518 18.06 7.82517 17.02 9.58517 16.42L11.4852 18.04C11.7852 18.3 12.2252 18.3 12.5252 18.04L14.4252 16.42C16.1852 17.04 18.3052 18.08 19.1852 19H4.82518Z"/>
</svg>
