<svg width="24" height="24" viewBox="0 0 24 24" fill="none" xmlns="http://www.w3.org/2000/svg">
<path d="M12.1207 18C15.014 18 13.9824 16.2416 14.2057 15.736C14.2024 15.3584 14.199 14.9952 14.2124 14.7744C14.3957 14.824 14.8282 15.0344 15.7215 15.868C17.1007 17.204 17.4532 18 18.5673 18H20.6181C21.2681 18 21.6065 17.7416 21.7756 17.5248C21.9389 17.3152 22.0989 16.9472 21.9239 16.3744C21.4665 14.9952 18.7981 12.6136 18.6323 12.3624C18.6573 12.316 18.6973 12.2544 18.7182 12.2224H18.7165C19.2431 11.5544 21.2531 8.6632 21.549 7.5064C21.5498 7.5048 21.5506 7.5024 21.5506 7.5C21.7106 6.972 21.564 6.6296 21.4123 6.436C21.184 6.1464 20.8206 6 20.3298 6H18.279C17.5923 6 17.0715 6.332 16.8082 6.9376C16.3673 8.0136 15.129 10.2264 14.2007 11.0096C14.1724 9.9 14.1915 9.0528 14.2065 8.4232C14.2365 7.1952 14.3332 6 13.0057 6H9.78241C8.95076 6 8.15493 6.872 9.01659 7.9072C9.76991 8.8144 9.28742 9.32 9.44992 11.8368C8.81659 11.1848 7.68994 9.424 6.89328 7.1736C6.66995 6.5648 6.33162 6.0008 5.37913 6.0008H3.32832C2.49666 6.0008 2 6.436 2 7.1648C2 8.8016 5.77413 18 12.1207 18ZM5.37913 7.2008C5.55996 7.2008 5.57829 7.2008 5.71246 7.5664C6.52828 9.8728 8.35826 13.2856 9.69492 13.2856C10.6991 13.2856 10.6991 12.2976 10.6991 11.9256L10.6982 8.964C10.6432 7.984 10.2716 7.496 10.0274 7.2L12.9507 7.2032C12.9524 7.2168 12.934 10.4792 12.959 11.2696C12.959 12.392 13.8874 13.0352 15.3365 11.6272C16.8657 9.9704 17.9232 7.4936 17.9657 7.3928C18.0282 7.2488 18.0823 7.2 18.279 7.2H20.3298H20.3381C20.3373 7.2024 20.3373 7.2048 20.3365 7.2072C20.149 8.0472 18.2982 10.724 17.679 11.5552C17.669 11.568 17.6598 11.5816 17.6507 11.5952C17.3782 12.0224 17.1565 12.4944 17.6882 13.1584H17.689C17.7373 13.2144 17.8632 13.3456 18.0465 13.528C18.6165 14.0928 20.5715 16.024 20.7448 16.792C20.6298 16.8096 20.5048 16.7968 18.5673 16.8008C18.1548 16.8008 17.8323 16.2088 16.6015 15.0168C15.4949 13.9832 14.7765 13.5608 14.1224 13.5608C12.8524 13.5608 12.9449 14.5504 12.9565 15.7472C12.9607 17.0448 12.9524 16.6344 12.9615 16.716C12.8874 16.744 12.6749 16.8 12.1207 16.8C6.83328 16.8 3.38998 8.7432 3.25749 7.2032C3.30332 7.1992 3.93415 7.2016 5.37913 7.2008Z" fill="#232630"/>
</svg>
